<?xml version="1.0" encoding="utf-8"?>
<!-- Generator: Adobe Illustrator 23.0.2, SVG Export Plug-In . SVG Version: 6.00 Build 0)  -->
<svg version="1.1" id="Layer_1" xmlns="http://www.w3.org/2000/svg" xmlns:xlink="http://www.w3.org/1999/xlink" x="0px" y="0px"
	 viewBox="0 0 217 150" style="enable-background:new 0 0 217 150;" xml:space="preserve">
<style type="text/css">
	.st0{fill:#E3E3E3;}
	.st1{fill:#999999;}
	.st2{fill:#878787;}
	.st3{fill:#666666;}
	.st4{opacity:0.35;fill:#FFFFFF;}
	.st5{fill:#323232;}
	.st6{fill:#555555;}
</style>
<rect x="0" y="0" class="st0" width="217" height="150"/>
<rect x="10.1" y="9.4" class="st1" width="197" height="130"/>
<path class="st2" d="M216.1,139.3c-0.4-5.3-3.1-10.3-3.1-15.6c0-3.7,0.9-7.4,2.4-10.7c-0.3-1.2-0.5-2.5-0.5-3.8c0-0.2,0-0.4,0.1-0.5
	l-42.8-42.5c-0.5-0.5-1.4-0.6-1.9-0.1l-32.9,27.7l-42-49.5c-0.3-0.3-0.7-0.5-1.1-0.5c-0.4,0-0.8,0.2-1.1,0.5l-49.7,63.8v-0.7
	c-0.4,0.5-0.9,1-1.7,1.3c-4.1,1.6-7,5.7-9.6,9c-2.8,3.4-5.5,6.8-9.1,9.4c-0.1,0.1-0.2,0.1-0.3,0.2v8.9c0,1.8,1.5,3.3,3.4,3.3h189.9
	C216.1,139.4,216.1,139.3,216.1,139.3z"/>
<path class="st2" d="M179.8,119.4c-2.9-4-12.2-3.4-17.4-3.4c-0.6,0-1.1-0.1-1.5-0.2v0.5L106.1,75c-0.6-0.5-1.6-0.5-2.3-0.1
	L65.7,99.3L17.1,55.8c-0.3-0.3-0.8-0.4-1.3-0.4c-0.5,0-1,0.2-1.3,0.5L1.6,68.4c0.4,0.9,0.6,1.9,0.5,3.1c-2.7,18.6-1.9,38.8-0.2,57.5
	c0.3,3.7,0.2,7.6-1.6,10.3h180.6c2.2,0,4-1.3,4-2.9v-15.9C183.1,121,180.9,120.8,179.8,119.4z"/>
<g>
	<circle class="st3" cx="113" cy="55.9" r="29.7"/>
	<path class="st3" d="M113,85.6c-29.7,0-53.8,24.1-53.8,53.8h107.7C166.8,109.7,142.7,85.6,113,85.6z"/>
</g>
<rect x="10.1" y="9.4" class="st4" width="197" height="129.9"/>
<rect x="46.2" y="68.9" class="st5" width="124.6" height="12.1"/>
<rect x="24.9" y="117" class="st6" width="55.6" height="8.2"/>
<rect x="25.1" y="91" class="st5" width="166" height="4.6"/>
<rect x="25.1" y="100.9" class="st5" width="135.4" height="4.6"/>
<rect x="207.1" y="97.8" class="st0" width="10" height="45.9"/>
<rect x="0" y="53.1" class="st0" width="10" height="96.9"/>
</svg>
