<?xml version="1.0" encoding="utf-8"?>
<!-- Generator: Adobe Illustrator 23.0.2, SVG Export Plug-In . SVG Version: 6.00 Build 0)  -->
<svg version="1.1" id="Layer_1" xmlns="http://www.w3.org/2000/svg" xmlns:xlink="http://www.w3.org/1999/xlink" x="0px" y="0px"
	 viewBox="0 0 217 150" style="enable-background:new 0 0 217 150;" xml:space="preserve">
<style type="text/css">
	.st0{fill:#E3E3E3;}
	.st1{fill:#333232;}
	.st2{fill:#565656;}
	.st3{fill:#989898;}
	.st4{fill:#878787;}
	.st5{fill:#676767;}
	.st6{fill:#FFFFFF;}
	.st7{fill:#333333;}
</style>
<g>
	<g>
		<rect x="51.9" y="16.9" class="st0" width="56" height="44.7"/>
		<rect x="54.4" y="47.9" class="st1" width="27.2" height="2.5"/>
		<rect x="54.4" y="57.8" class="st2" width="12.1" height="1.7"/>
		<rect x="54.4" y="19.2" class="st3" width="50.8" height="25.8"/>
		<rect x="54.4" y="51.4" class="st1" width="48.2" height="1.1"/>
		<rect x="54.4" y="53.3" class="st1" width="48.2" height="1.1"/>
		<rect x="54.4" y="55.4" class="st1" width="34.1" height="1.1"/>
		<path class="st4" d="M105.9,42.3c-0.4-1.4-0.4-2.8-0.6-4.2c0,0.3,0.1,0.6,0.1,0.9c-0.2-1.4-0.1-2.7,0.6-4c0.2-0.3,0.4-0.6,0.7-0.9
			l-5-4.7c-0.1-0.1-0.3-0.1-0.4,0l-7.4,5.9l-9.5-10.5c-0.1-0.1-0.2-0.1-0.3-0.1c-0.1,0-0.2,0-0.2,0.1L72.6,38.3v-0.2
			c-0.1,0.1-0.2,0.2-0.4,0.3c-0.9,0.3-1.6,1.2-2.2,1.9s-1.2,1.4-2.1,2c0,0,0,0-0.1,0v1.9c0,0.4,0.3,0.7,0.8,0.7h38.5
			C106.6,44.2,106.2,43.2,105.9,42.3z"/>
		<path class="st4" d="M101.5,41c-0.6-0.8-2.6-0.7-3.7-0.7c-0.1,0-0.2,0-0.3,0v0.1l-11.7-8.3c-0.1-0.1-0.3-0.1-0.5,0L77.2,37
			l-10.4-8.7c-0.1-0.1-0.2-0.1-0.3-0.1c-0.1,0-0.2,0-0.3,0.1L53.9,39.4c0,0.2,0,0.4,0,0.7c-0.4,1.4-0.2,2.8-0.3,4.3
			c0,0.2-0.1,0.4-0.2,0.6h48.3c0.5,0,0.9-0.3,0.9-0.6v-3.2C102.2,41.3,101.7,41.2,101.5,41z"/>
		<g>
			<ellipse class="st5" cx="81.9" cy="29.1" rx="6" ry="5.6"/>
			<path class="st5" d="M81.9,34.8c-6,0-10.9,4.6-10.9,10.2h21.8C92.8,39.4,87.9,34.8,81.9,34.8z"/>
		</g>
		<rect x="105.2" y="30.7" class="st0" width="2.6" height="15.6"/>
		<rect x="52.4" y="32.1" class="st0" width="2" height="13.5"/>
	</g>
	<g>
		<rect x="110.3" y="16.9" class="st0" width="56.6" height="44.7"/>
		<rect x="112.9" y="47.9" class="st1" width="27.5" height="2.5"/>
		<rect x="112.9" y="57.7" class="st2" width="12.3" height="1.7"/>
		<rect x="112.9" y="19.1" class="st3" width="51.4" height="25.8"/>
		<rect x="112.9" y="51.4" class="st1" width="48.7" height="1.1"/>
		<rect x="112.9" y="53.3" class="st1" width="48.7" height="1.1"/>
		<rect x="112.9" y="55.4" class="st1" width="34.5" height="1.1"/>
		<path class="st4" d="M165,42.3c-0.4-1.4-0.4-2.8-0.6-4.2c0,0.3,0.1,0.6,0.1,0.9c-0.2-1.4-0.1-2.7,0.6-4c0.2-0.3,0.4-0.6,0.7-0.9
			l-5.1-4.7c-0.1-0.1-0.3-0.1-0.4,0l-7.5,5.9l-9.6-10.5c-0.1-0.1-0.2-0.1-0.3-0.1s-0.2,0-0.3,0.1l-11.4,13.6v-0.2
			c-0.1,0.1-0.2,0.2-0.4,0.3c-0.9,0.3-1.6,1.2-2.2,1.9c-0.6,0.7-1.3,1.4-2.1,2c0,0,0,0-0.1,0v1.9c0,0.4,0.4,0.7,0.8,0.7h38.9
			C165.7,44.1,165.3,43.2,165,42.3z"/>
		<path class="st4" d="M160.5,40.9c-0.6-0.8-2.6-0.7-3.8-0.7c-0.1,0-0.2,0-0.3,0v0.1L144.6,32c-0.1-0.1-0.3-0.1-0.5,0l-8.2,4.9
			l-10.5-8.7c-0.1-0.1-0.2-0.1-0.3-0.1c-0.1,0-0.2,0-0.3,0.1l-12.4,11.2c0,0.2,0,0.4,0,0.7c-0.4,1.4-0.2,2.8-0.3,4.3
			c0,0.2-0.1,0.4-0.2,0.6h48.9c0.5,0,0.9-0.3,0.9-0.6v-3.2C161.2,41.2,160.7,41.2,160.5,40.9z"/>
		<g>
			<ellipse class="st5" cx="140.7" cy="29.1" rx="6.1" ry="5.6"/>
			<path class="st5" d="M140.7,34.7c-6.1,0-11,4.6-11,10.2h22C151.7,39.3,146.8,34.7,140.7,34.7z"/>
		</g>
		<rect x="164.3" y="30.6" class="st0" width="2.6" height="15.6"/>
		<rect x="110.9" y="32" class="st0" width="2" height="13.5"/>
	</g>
</g>
<g>
	<g>
		<rect x="51.9" y="64.2" class="st0" width="56" height="47.6"/>
		<rect x="54.4" y="97.2" class="st1" width="27.2" height="2.6"/>
		<rect x="54.4" y="107.6" class="st2" width="12.1" height="1.8"/>
		<rect x="54.5" y="66.6" class="st3" width="50.8" height="27.5"/>
		<rect x="54.4" y="100.9" class="st1" width="48.2" height="1.2"/>
		<rect x="54.4" y="102.9" class="st1" width="48.2" height="1.2"/>
		<rect x="54.4" y="105.2" class="st1" width="34.1" height="1.2"/>
		<path class="st4" d="M106,91.2c-0.4-1.5-0.4-3-0.6-4.5c0,0.3,0.1,0.7,0.1,1c-0.2-1.5-0.1-2.9,0.6-4.3c0.2-0.4,0.4-0.7,0.7-1l-5-5
			c-0.1-0.1-0.3-0.1-0.4,0L94,83.7l-9.5-11.2c-0.1-0.1-0.2-0.1-0.3-0.1c-0.1,0-0.2,0-0.2,0.1L72.7,87v-0.2c-0.1,0.1-0.2,0.2-0.4,0.3
			c-0.9,0.4-1.6,1.3-2.2,2c-0.6,0.8-1.2,1.5-2.1,2.1c0,0,0,0-0.1,0v2c0,0.4,0.3,0.7,0.8,0.7h38.5C106.7,93.2,106.2,92.2,106,91.2z"
			/>
		<path class="st4" d="M101.5,89.8c-0.6-0.8-2.6-0.7-3.7-0.7c-0.1,0-0.2,0-0.3,0v0.1l-11.7-8.8c-0.1-0.1-0.3-0.1-0.5,0l-8.1,5.2
			l-10.4-9.3c-0.1-0.1-0.2-0.1-0.3-0.1c-0.1,0-0.2,0-0.3,0.1L54,88.1c0,0.2,0,0.5,0,0.7c-0.4,1.5-0.2,3-0.3,4.5
			c0,0.2-0.1,0.4-0.2,0.6h48.3c0.5,0,0.9-0.3,0.9-0.6V90C102.2,90.1,101.8,90.1,101.5,89.8z"/>
		<g>
			<circle class="st5" cx="82" cy="77.2" r="6"/>
			<path class="st5" d="M82,83.2c-6,0-10.9,4.9-10.9,10.9h21.8C92.8,88.1,88,83.2,82,83.2z"/>
		</g>
		<rect x="105.3" y="78.8" class="st0" width="2.6" height="16.6"/>
		<rect x="52.5" y="80.3" class="st0" width="2" height="14.4"/>
	</g>
	<g>
		<rect x="110.4" y="64.2" class="st0" width="56.6" height="47.6"/>
		<rect x="112.9" y="97.1" class="st1" width="27.5" height="2.6"/>
		<rect x="112.9" y="107.6" class="st2" width="12.3" height="1.8"/>
		<rect x="113" y="66.5" class="st3" width="51.4" height="27.5"/>
		<rect x="112.9" y="100.8" class="st1" width="48.7" height="1.2"/>
		<rect x="112.9" y="102.9" class="st1" width="48.7" height="1.2"/>
		<rect x="112.9" y="105.1" class="st1" width="34.5" height="1.2"/>
		<path class="st4" d="M165.1,91.1c-0.4-1.5-0.4-3-0.6-4.5c0,0.3,0.1,0.7,0.1,1c-0.2-1.5-0.1-2.9,0.6-4.3c0.2-0.4,0.4-0.7,0.7-1
			l-5.1-5c-0.1-0.1-0.3-0.1-0.4,0l-7.5,6.3l-9.6-11.2c-0.1-0.1-0.2-0.1-0.3-0.1s-0.2,0-0.3,0.1l-11.4,14.4v-0.2
			c-0.1,0.1-0.2,0.2-0.4,0.3c-0.9,0.4-1.6,1.3-2.2,2c-0.6,0.8-1.3,1.5-2.1,2.1c0,0,0,0-0.1,0v2c0,0.4,0.4,0.7,0.8,0.7h38.9
			C165.8,93.1,165.3,92.1,165.1,91.1z"/>
		<path class="st4" d="M160.6,89.7c-0.6-0.8-2.6-0.7-3.8-0.7c-0.1,0-0.2,0-0.3,0l0,0l-11.9-8.8c-0.1-0.1-0.3-0.1-0.5,0l-8.2,5.2
			l-10.5-9.3c-0.1-0.1-0.2-0.1-0.3-0.1c-0.1,0-0.2,0-0.3,0.1L112.4,88c0,0.2,0,0.5,0,0.7c-0.4,1.5-0.2,3-0.3,4.5
			c0,0.2-0.1,0.4-0.2,0.6h48.9c0.5,0,0.9-0.3,0.9-0.6v-3.4C161.3,90.1,160.8,90,160.6,89.7z"/>
		<g>
			<ellipse class="st5" cx="140.8" cy="77.1" rx="6.1" ry="6"/>
			<path class="st5" d="M140.8,83.1c-6.1,0-11,4.9-11,10.9h22C151.8,88,146.8,83.1,140.8,83.1z"/>
		</g>
		<rect x="164.4" y="78.8" class="st0" width="2.6" height="16.6"/>
		<rect x="110.9" y="80.3" class="st0" width="2" height="14.4"/>
	</g>
</g>
<g>
	<rect x="34.2" y="105.7" class="st6" width="142.5" height="41.9"/>
	<path class="st7" d="M170.7,7.7H47.8c-6.4,0-11.7,5.2-11.7,11.7v93.3c0,6.4,5.2,11.7,11.7,11.7h45.1v17.1H76.6
		c-1.3,0-2.3,1-2.3,2.3s1,2.3,2.3,2.3h65.3c1.3,0,2.3-1,2.3-2.3s-1-2.3-2.3-2.3h-16.3v-17.1h45.1c6.4,0,11.7-5.2,11.7-11.7V19.4
		C182.4,12.9,177.1,7.7,170.7,7.7z M120.9,141.5H97.6v-17.1h23.3C120.9,124.4,120.9,141.5,120.9,141.5z M177.7,112.7
		c0,3.9-3.1,7-7,7H47.8c-3.9,0-7-3.1-7-7v-7h136.9V112.7z M177.7,101.1H40.8V19.4c0-3.9,3.1-7,7-7h122.9c3.9,0,7,3.1,7,7V101.1z"/>
</g>
</svg>
