<?xml version="1.0" encoding="utf-8"?>
<!-- Generator: Adobe Illustrator 23.0.2, SVG Export Plug-In . SVG Version: 6.00 Build 0)  -->
<svg version="1.1" id="Layer_1" xmlns="http://www.w3.org/2000/svg" xmlns:xlink="http://www.w3.org/1999/xlink" x="0px" y="0px"
	 viewBox="0 0 217 150" style="enable-background:new 0 0 217 150;" xml:space="preserve">
<style type="text/css">
	.st0{fill:#E3E3E3;}
	.st1{fill:#333232;}
	.st2{fill:#565656;}
	.st3{fill:#989898;}
	.st4{fill:#878787;}
	.st5{fill:#676767;}
	.st6{fill:#333333;}
</style>
<g>
	<g>
		<rect x="54.2" y="14.7" class="st0" width="27.3" height="23.2"/>
		<rect x="55.4" y="30.8" class="st1" width="13.3" height="1.2"/>
		<rect x="55.4" y="35.9" class="st2" width="6" height="0.9"/>
		<rect x="55.4" y="15.8" class="st3" width="24.8" height="13.4"/>
		<rect x="55.4" y="32.6" class="st1" width="23.6" height="0.5"/>
		<rect x="55.4" y="33.6" class="st1" width="23.6" height="0.5"/>
		<rect x="55.4" y="34.6" class="st1" width="16.6" height="0.5"/>
		<path class="st4" d="M80.5,27.9c-0.2-0.7-0.2-1.4-0.3-2.1c0,0.2,0,0.4,0.1,0.4c-0.1-0.7-0.1-1.4,0.3-2c0.1-0.2,0.2-0.4,0.4-0.4
			l-2.5-2.4c-0.1-0.1-0.2-0.1-0.2,0l-3.6,2.9L70,18.8l-0.1-0.1c-0.1,0-0.1,0-0.1,0.1l-5.5,7v-0.1c0,0.1-0.1,0.1-0.2,0.2
			c-0.4,0.2-0.8,0.6-1.1,1s-0.6,0.7-1,1.1l0,0v1c0,0.2,0.2,0.4,0.4,0.4h18.8C80.9,28.8,80.7,28.3,80.5,27.9z"/>
		<path class="st4" d="M78.4,27.1c-0.3-0.4-1.2-0.4-1.8-0.4c-0.1,0-0.1,0-0.2,0v0.1l-5.7-4.3c-0.1-0.1-0.2-0.1-0.3,0l-4,2.5
			l-5.1-4.5c0,0-0.1-0.1-0.2-0.1c-0.1,0-0.1,0-0.1,0.1l-6,5.8c0,0.1,0,0.3,0,0.4c-0.2,0.7-0.1,1.5-0.2,2.2c0,0.1,0,0.2-0.1,0.3h23.6
			c0.3,0,0.4-0.2,0.4-0.3v-1.7C78.8,27.3,78.5,27.3,78.4,27.1z"/>
		<g>
			<circle class="st5" cx="68.8" cy="21" r="2.9"/>
			<path class="st5" d="M68.8,23.9c-2.9,0-5.3,2.4-5.3,5.3H74C74.1,26.3,71.7,23.9,68.8,23.9z"/>
		</g>
		<rect x="80.2" y="21.8" class="st0" width="1.2" height="8.1"/>
		<rect x="54.4" y="22.5" class="st0" width="1" height="7"/>
	</g>
	<g>
		<rect x="83.6" y="14.6" class="st0" width="27.7" height="23.2"/>
		<rect x="84.8" y="30.7" class="st1" width="13.4" height="1.2"/>
		<rect x="84.8" y="35.9" class="st2" width="6" height="0.9"/>
		<rect x="84.8" y="15.8" class="st3" width="25.1" height="13.4"/>
		<rect x="84.8" y="32.6" class="st1" width="23.8" height="0.5"/>
		<rect x="84.8" y="33.6" class="st1" width="23.8" height="0.5"/>
		<rect x="84.8" y="34.6" class="st1" width="16.8" height="0.5"/>
		<path class="st4" d="M110.3,27.8c-0.2-0.7-0.2-1.4-0.3-2.1c0,0.2,0,0.4,0.1,0.4c-0.1-0.7-0.1-1.4,0.3-2c0.1-0.2,0.2-0.4,0.4-0.4
			l-2.5-2.4c-0.1-0.1-0.2-0.1-0.2,0l-3.6,3l-4.7-5.4l-0.1-0.1c-0.1,0-0.1,0-0.1,0.1l-5.5,7v-0.1c0,0.1-0.1,0.1-0.2,0.2
			c-0.4,0.2-0.8,0.6-1.1,1c-0.3,0.4-0.6,0.7-1,1.1l0,0v1c0,0.2,0.2,0.4,0.4,0.4h19C110.6,28.7,110.4,28.3,110.3,27.8z"/>
		<path class="st4" d="M108.1,27.1c-0.3-0.4-1.2-0.4-1.9-0.4c-0.1,0-0.1,0-0.2,0v0.1l-5.8-4.3c-0.1-0.1-0.2-0.1-0.3,0l-4,2.5
			l-5.2-4.5c0,0-0.1-0.1-0.2-0.1s-0.1,0-0.2,0.1l-6.1,5.8c0,0.1,0,0.3,0,0.4c-0.2,0.7-0.1,1.5-0.2,2.2c0,0.1,0,0.2-0.1,0.3H108
			c0.3,0,0.4-0.2,0.4-0.3v-1.7C108.5,27.3,108.2,27.2,108.1,27.1z"/>
		<g>
			<ellipse class="st5" cx="98.4" cy="21" rx="2.9" ry="2.9"/>
			<path class="st5" d="M98.4,23.9c-2.9,0-5.3,2.4-5.3,5.3h10.8C103.8,26.3,101.4,23.9,98.4,23.9z"/>
		</g>
		<rect x="109.9" y="21.8" class="st0" width="1.3" height="8.1"/>
		<rect x="83.8" y="22.5" class="st0" width="1" height="7"/>
	</g>
	<g>
		<rect x="113.2" y="14.6" class="st0" width="27.7" height="23.2"/>
		<rect x="114.4" y="30.7" class="st1" width="13.4" height="1.2"/>
		<rect x="114.4" y="35.8" class="st2" width="6" height="0.9"/>
		<rect x="114.4" y="15.8" class="st3" width="25.1" height="13.4"/>
		<rect x="114.4" y="32.5" class="st1" width="23.8" height="0.5"/>
		<rect x="114.4" y="33.6" class="st1" width="23.8" height="0.5"/>
		<rect x="114.4" y="34.6" class="st1" width="16.8" height="0.5"/>
		<path class="st4" d="M139.9,27.8c-0.2-0.7-0.2-1.4-0.3-2.1c0,0.2,0,0.4,0.1,0.4c-0.1-0.7-0.1-1.4,0.3-2c0.1-0.2,0.2-0.4,0.4-0.4
			l-2.5-2.4c-0.1-0.1-0.2-0.1-0.2,0l-3.6,3l-4.7-5.4l-0.1-0.1c-0.1,0-0.1,0-0.1,0.1l-5.5,7v-0.1c0,0.1-0.1,0.1-0.2,0.2
			c-0.4,0.2-0.8,0.6-1.1,1c-0.3,0.4-0.6,0.7-1,1.1l0,0v1c0,0.2,0.2,0.4,0.4,0.4h19C140.2,28.7,140.1,28.2,139.9,27.8z"/>
		<path class="st4" d="M137.8,27.1c-0.3-0.4-1.2-0.4-1.9-0.4c-0.1,0-0.1,0-0.2,0v0.1l-5.8-4.3c-0.1-0.1-0.2-0.1-0.3,0l-4,2.5
			l-5.2-4.5c0,0-0.1-0.1-0.2-0.1s-0.1,0-0.2,0.1l-6.1,5.8c0,0.1,0,0.3,0,0.4c-0.2,0.7-0.1,1.5-0.2,2.2c0,0.1,0,0.2-0.1,0.3h23.8
			c0.3,0,0.4-0.2,0.4-0.3L137.8,27.1C138,27.2,137.8,27.2,137.8,27.1z"/>
		<g>
			<ellipse class="st5" cx="128.1" cy="20.9" rx="2.9" ry="2.9"/>
			<path class="st5" d="M128.1,23.9c-2.9,0-5.3,2.4-5.3,5.3h10.8C133.4,26.3,131,23.9,128.1,23.9z"/>
		</g>
		<rect x="139.5" y="21.7" class="st0" width="1.1" height="8.1"/>
		<rect x="113.5" y="22.5" class="st0" width="1" height="7"/>
	</g>
	<g>
		<rect x="142.7" y="14.6" class="st0" width="27.7" height="23.2"/>
		<rect x="144" y="30.7" class="st1" width="13.4" height="1.2"/>
		<rect x="144" y="35.8" class="st2" width="6" height="0.9"/>
		<rect x="144" y="15.8" class="st3" width="25.1" height="13.4"/>
		<rect x="144" y="32.5" class="st1" width="23.8" height="0.5"/>
		<rect x="144" y="33.5" class="st1" width="23.8" height="0.5"/>
		<rect x="144" y="34.5" class="st1" width="16.8" height="0.5"/>
		<path class="st4" d="M169.4,27.8c-0.2-0.7-0.2-1.4-0.3-2.1c0,0.2,0,0.4,0.1,0.4c-0.1-0.7-0.1-1.4,0.3-2c0.1-0.2,0.2-0.4,0.4-0.4
			l-2.5-2.4c-0.1-0.1-0.2-0.1-0.2,0l-3.6,3l-4.7-5.4l-0.1-0.1c-0.1,0-0.1,0-0.1,0.1l-5.5,7v-0.1c0,0.1-0.1,0.1-0.2,0.2
			c-0.4,0.2-0.8,0.6-1.1,1s-0.6,0.7-1,1.1l0,0v1c0,0.2,0.2,0.4,0.4,0.4h19C169.8,28.7,169.5,28.2,169.4,27.8z"/>
		<path class="st4" d="M167.2,27.1c-0.3-0.4-1.2-0.4-1.9-0.4c-0.1,0-0.1,0-0.2,0v0.1l-5.8-4.3c-0.1-0.1-0.2-0.1-0.3,0l-4,2.5
			l-5.2-4.5c0,0-0.1-0.1-0.2-0.1s-0.1,0-0.2,0.1l-6.1,5.8c0,0.1,0,0.3,0,0.4c-0.2,0.7-0.1,1.5-0.2,2.2c0,0.1,0,0.2-0.1,0.3h23.8
			c0.3,0,0.4-0.2,0.4-0.3V27.1C167.6,27.2,167.4,27.2,167.2,27.1z"/>
		<g>
			<ellipse class="st5" cx="157.6" cy="20.9" rx="2.9" ry="2.9"/>
			<path class="st5" d="M157.6,23.9c-2.9,0-5.3,2.4-5.3,5.3H163C162.9,26.3,160.5,23.9,157.6,23.9z"/>
		</g>
		<rect x="169.1" y="22.5" class="st0" width="1.2" height="7.3"/>
		<rect x="143" y="22.4" class="st0" width="1" height="7"/>
	</g>
</g>
<g>
	<g>
		<rect x="54.2" y="39.7" class="st0" width="27.3" height="23.2"/>
		<rect x="55.3" y="55.8" class="st1" width="13.3" height="1.2"/>
		<rect x="55.3" y="60.9" class="st2" width="6" height="0.9"/>
		<rect x="55.3" y="40.8" class="st3" width="24.8" height="13.4"/>
		<rect x="55.3" y="57.6" class="st1" width="23.6" height="0.5"/>
		<rect x="55.3" y="58.6" class="st1" width="23.6" height="0.5"/>
		<rect x="55.3" y="59.6" class="st1" width="16.6" height="0.5"/>
		<path class="st4" d="M80.5,52.9c-0.2-0.7-0.2-1.4-0.3-2.1c0,0.2,0,0.4,0.1,0.4c-0.1-0.7-0.1-1.4,0.3-2c0.1-0.2,0.2-0.4,0.4-0.4
			l-2.5-2.4c-0.1-0.1-0.2-0.1-0.2,0l-3.6,2.9L70,43.8l-0.1-0.1c-0.1,0-0.1,0-0.1,0.1l-5.5,7v-0.1c0,0.1-0.1,0.1-0.2,0.2
			c-0.4,0.2-0.8,0.6-1.1,1s-0.6,0.7-1,1.1l0,0v1c0,0.2,0.2,0.4,0.4,0.4h18.8C80.9,53.8,80.7,53.3,80.5,52.9z"/>
		<path class="st4" d="M78.4,52.1c-0.3-0.4-1.2-0.4-1.8-0.4c-0.1,0-0.1,0-0.2,0v0.1l-5.7-4.3c-0.1-0.1-0.2-0.1-0.3,0l-4,2.5
			l-5.1-4.5c0,0-0.1-0.1-0.2-0.1c-0.1,0-0.1,0-0.1,0.1l-6,5.8c0,0.1,0,0.3,0,0.4c-0.2,0.7-0.1,1.5-0.2,2.2c0,0.1,0,0.2-0.1,0.3h23.6
			c0.3,0,0.4-0.2,0.4-0.3v-1.7C78.7,52.3,78.5,52.3,78.4,52.1z"/>
		<g>
			<circle class="st5" cx="68.8" cy="46" r="2.9"/>
			<path class="st5" d="M68.8,48.9c-2.9,0-5.3,2.4-5.3,5.3H74C74.1,51.3,71.7,48.9,68.8,48.9z"/>
		</g>
		<rect x="80.1" y="46.8" class="st0" width="1.2" height="8.1"/>
		<rect x="54.3" y="47.5" class="st0" width="1" height="7"/>
	</g>
	<g>
		<rect x="83.5" y="39.6" class="st0" width="27.7" height="23.2"/>
		<rect x="84.8" y="55.7" class="st1" width="13.4" height="1.2"/>
		<rect x="84.8" y="60.9" class="st2" width="6" height="0.9"/>
		<rect x="84.8" y="40.8" class="st3" width="25.1" height="13.4"/>
		<rect x="84.8" y="57.6" class="st1" width="23.8" height="0.5"/>
		<rect x="84.8" y="58.6" class="st1" width="23.8" height="0.5"/>
		<rect x="84.8" y="59.6" class="st1" width="16.8" height="0.5"/>
		<path class="st4" d="M110.2,52.8c-0.2-0.7-0.2-1.4-0.3-2.1c0,0.2,0,0.4,0.1,0.4c-0.1-0.7-0.1-1.4,0.3-2c0.1-0.2,0.2-0.4,0.4-0.4
			l-2.5-2.4c-0.1-0.1-0.2-0.1-0.2,0l-3.6,3l-4.7-5.4l-0.1-0.1c-0.1,0-0.1,0-0.1,0.1l-5.5,7v-0.1c0,0.1-0.1,0.1-0.2,0.2
			c-0.4,0.2-0.8,0.6-1.1,1c-0.3,0.4-0.6,0.7-1,1.1l0,0v1c0,0.2,0.2,0.4,0.4,0.4h19C110.6,53.8,110.4,53.3,110.2,52.8z"/>
		<path class="st4" d="M108.1,52.1c-0.3-0.4-1.2-0.4-1.9-0.4c-0.1,0-0.1,0-0.2,0v0.1l-5.8-4.3c-0.1-0.1-0.2-0.1-0.3,0l-4,2.5
			l-5.2-4.5c0,0-0.1-0.1-0.2-0.1s-0.1,0-0.2,0.1l-6.1,5.8c0,0.1,0,0.3,0,0.4c-0.2,0.7-0.1,1.5-0.2,2.2c0,0.1,0,0.2-0.1,0.3H108
			c0.3,0,0.4-0.2,0.4-0.3v-1.7C108.4,52.3,108.2,52.2,108.1,52.1z"/>
		<g>
			<ellipse class="st5" cx="98.4" cy="46" rx="2.9" ry="2.9"/>
			<path class="st5" d="M98.4,48.9c-2.9,0-5.3,2.4-5.3,5.3h10.8C103.7,51.3,101.3,48.9,98.4,48.9z"/>
		</g>
		<rect x="109.9" y="46.8" class="st0" width="1.3" height="8.1"/>
		<rect x="83.8" y="47.5" class="st0" width="1" height="7"/>
	</g>
	<g>
		<rect x="113.2" y="39.6" class="st0" width="27.7" height="23.2"/>
		<rect x="114.4" y="55.7" class="st1" width="13.4" height="1.2"/>
		<rect x="114.4" y="60.8" class="st2" width="6" height="0.9"/>
		<rect x="114.4" y="40.8" class="st3" width="25.1" height="13.4"/>
		<rect x="114.4" y="57.5" class="st1" width="23.8" height="0.5"/>
		<rect x="114.4" y="58.6" class="st1" width="23.8" height="0.5"/>
		<rect x="114.4" y="59.6" class="st1" width="16.8" height="0.5"/>
		<path class="st4" d="M139.9,52.8c-0.2-0.7-0.2-1.4-0.3-2.1c0,0.2,0,0.4,0.1,0.4c-0.1-0.7-0.1-1.4,0.3-2c0.1-0.2,0.2-0.4,0.4-0.4
			l-2.5-2.4c-0.1-0.1-0.2-0.1-0.2,0l-3.6,3l-4.7-5.4l-0.1-0.1c-0.1,0-0.1,0-0.1,0.1l-5.5,7v-0.1c0,0.1-0.1,0.1-0.2,0.2
			c-0.4,0.2-0.8,0.6-1.1,1c-0.3,0.4-0.6,0.7-1,1.1l0,0v1c0,0.2,0.2,0.4,0.4,0.4h19C140.2,53.8,140,53.2,139.9,52.8z"/>
		<path class="st4" d="M137.7,52.1c-0.3-0.4-1.2-0.4-1.9-0.4c-0.1,0-0.1,0-0.2,0v0.1l-5.8-4.3c-0.1-0.1-0.2-0.1-0.3,0l-4,2.5
			l-5.2-4.5c0,0-0.1-0.1-0.2-0.1s-0.1,0-0.2,0.1l-6.1,5.8c0,0.1,0,0.3,0,0.4c-0.2,0.7-0.1,1.5-0.2,2.2c0,0.1,0,0.2-0.1,0.3h23.8
			c0.3,0,0.4-0.2,0.4-0.3L137.7,52.1C138,52.2,137.8,52.2,137.7,52.1z"/>
		<g>
			<ellipse class="st5" cx="128" cy="45.9" rx="2.9" ry="2.9"/>
			<path class="st5" d="M128,48.9c-2.9,0-5.3,2.4-5.3,5.3h10.8C133.4,51.3,131,48.9,128,48.9z"/>
		</g>
		<rect x="139.5" y="46.7" class="st0" width="1.2" height="8.1"/>
		<rect x="113.4" y="47.5" class="st0" width="1" height="7"/>
	</g>
	<g>
		<rect x="142.7" y="39.6" class="st0" width="27.7" height="23.2"/>
		<rect x="143.9" y="55.7" class="st1" width="13.4" height="1.2"/>
		<rect x="143.9" y="60.8" class="st2" width="6" height="0.9"/>
		<rect x="143.9" y="40.8" class="st3" width="25.1" height="13.4"/>
		<rect x="143.9" y="57.5" class="st1" width="23.8" height="0.5"/>
		<rect x="143.9" y="58.5" class="st1" width="23.8" height="0.5"/>
		<rect x="143.9" y="59.5" class="st1" width="16.8" height="0.5"/>
		<path class="st4" d="M169.4,52.8c-0.2-0.7-0.2-1.4-0.3-2.1c0,0.2,0,0.4,0.1,0.4c-0.1-0.7-0.1-1.4,0.3-2c0.1-0.2,0.2-0.4,0.4-0.4
			l-2.5-2.4c-0.1-0.1-0.2-0.1-0.2,0l-3.6,3l-4.7-5.4l-0.1-0.1c-0.1,0-0.1,0-0.1,0.1l-5.5,7v-0.1c0,0.1-0.1,0.1-0.2,0.2
			c-0.4,0.2-0.8,0.6-1.1,1s-0.6,0.7-1,1.1l0,0v1c0,0.2,0.2,0.4,0.4,0.4h19C169.7,53.8,169.5,53.2,169.4,52.8z"/>
		<path class="st4" d="M167.2,52.1c-0.3-0.4-1.2-0.4-1.9-0.4c-0.1,0-0.1,0-0.2,0v0.1l-5.8-4.3c-0.1-0.1-0.2-0.1-0.3,0l-4,2.5
			l-5.2-4.5c0,0-0.1-0.1-0.2-0.1s-0.1,0-0.2,0.1l-6.1,5.8c0,0.1,0,0.3,0,0.4c-0.2,0.7-0.1,1.5-0.2,2.2c0,0.1,0,0.2-0.1,0.3h23.8
			c0.3,0,0.4-0.2,0.4-0.3V52.1C167.5,52.2,167.3,52.2,167.2,52.1z"/>
		<g>
			<ellipse class="st5" cx="157.6" cy="45.9" rx="2.9" ry="2.9"/>
			<path class="st5" d="M157.6,48.9c-2.9,0-5.3,2.4-5.3,5.3H163C162.9,51.3,160.5,48.9,157.6,48.9z"/>
		</g>
		<rect x="169" y="47.5" class="st0" width="1.2" height="7.3"/>
		<rect x="143" y="47.4" class="st0" width="1" height="7"/>
	</g>
</g>
<g>
	<g>
		<rect x="54.2" y="64.7" class="st0" width="27.3" height="23.2"/>
		<rect x="55.4" y="80.8" class="st1" width="13.3" height="1.2"/>
		<rect x="55.4" y="85.9" class="st2" width="6" height="0.9"/>
		<rect x="55.4" y="65.9" class="st3" width="24.8" height="13.4"/>
		<rect x="55.4" y="82.6" class="st1" width="23.6" height="0.5"/>
		<rect x="55.4" y="83.6" class="st1" width="23.6" height="0.5"/>
		<rect x="55.4" y="84.7" class="st1" width="16.6" height="0.5"/>
		<path class="st4" d="M80.5,77.9c-0.2-0.7-0.2-1.4-0.3-2.1c0,0.2,0,0.4,0.1,0.4c-0.1-0.7-0.1-1.4,0.3-2c0.1-0.2,0.2-0.4,0.4-0.4
			l-2.5-2.4c-0.1-0.1-0.2-0.1-0.2,0l-3.6,2.9L70,68.8l-0.1-0.1c-0.1,0-0.1,0-0.1,0.1l-5.5,7v-0.1c0,0.1-0.1,0.1-0.2,0.2
			c-0.4,0.2-0.8,0.6-1.1,1s-0.6,0.7-1,1.1l0,0v1c0,0.2,0.2,0.4,0.4,0.4h18.8C80.9,78.9,80.7,78.4,80.5,77.9z"/>
		<path class="st4" d="M78.4,77.2c-0.3-0.4-1.2-0.4-1.8-0.4c-0.1,0-0.1,0-0.2,0v0.1l-5.7-4.3c-0.1-0.1-0.2-0.1-0.3,0l-4,2.5
			l-5.1-4.5c0,0-0.1-0.1-0.2-0.1c-0.1,0-0.1,0-0.1,0.1l-6,5.8c0,0.1,0,0.3,0,0.4c0,0.7,0.1,1.5,0,2.2c0,0.1,0,0.2-0.1,0.3h23.6
			c0.3,0,0.4-0.2,0.4-0.3v-1.7C78.8,77.4,78.5,77.4,78.4,77.2z"/>
		<g>
			<circle class="st5" cx="68.8" cy="71.1" r="2.9"/>
			<path class="st5" d="M68.8,74c-2.9,0-5.3,2.4-5.3,5.3H74C74.1,76.4,71.7,74,68.8,74z"/>
		</g>
		<rect x="80.2" y="71.9" class="st0" width="1.2" height="8.1"/>
		<rect x="54.4" y="72.6" class="st0" width="1" height="7"/>
	</g>
	<g>
		<rect x="83.6" y="64.7" class="st0" width="27.7" height="23.2"/>
		<rect x="84.8" y="80.8" class="st1" width="13.4" height="1.2"/>
		<rect x="84.8" y="85.9" class="st2" width="6" height="0.9"/>
		<rect x="84.8" y="65.8" class="st3" width="25.1" height="13.4"/>
		<rect x="84.8" y="82.6" class="st1" width="23.8" height="0.5"/>
		<rect x="84.8" y="83.6" class="st1" width="23.8" height="0.5"/>
		<rect x="84.8" y="84.7" class="st1" width="16.8" height="0.5"/>
		<path class="st4" d="M110.3,77.8c-0.2-0.7-0.2-1.4-0.3-2.1c0,0.2,0,0.4,0.1,0.4c-0.1-0.7-0.1-1.4,0.3-2c0.1-0.2,0.2-0.4,0.4-0.4
			l-2.5-2.4c-0.1-0.1-0.2-0.1-0.2,0l-3.6,3l-4.7-5.4l-0.1-0.1c-0.1,0-0.1,0-0.1,0.1l-5.5,7v-0.1c0,0.1-0.1,0.1-0.2,0.2
			c-0.4,0.2-0.8,0.6-1.1,1c-0.3,0.4-0.6,0.7-1,1.1l0,0v1c0,0.2,0.2,0.4,0.4,0.4h19C110.6,78.8,110.4,78.4,110.3,77.8z"/>
		<path class="st4" d="M108.1,77.2c-0.3-0.4-1.2-0.4-1.9-0.4c-0.1,0-0.1,0-0.2,0v0.1l-5.8-4.3c-0.1-0.1-0.2-0.1-0.3,0l-4,2.5
			l-5.2-4.5c0,0-0.1-0.1-0.2-0.1s-0.1,0-0.2,0.1l-6.1,5.8c0,0.1,0,0.3,0,0.4C84,77.5,84.1,78.3,84,79c0,0.1,0,0.2-0.1,0.3H108
			c0.3,0,0.4-0.2,0.4-0.3v-1.7C108.5,77.4,108.2,77.3,108.1,77.2z"/>
		<g>
			<ellipse class="st5" cx="98.4" cy="71.1" rx="2.9" ry="2.9"/>
			<path class="st5" d="M98.4,73.9c-2.9,0-5.3,2.4-5.3,5.3h10.8C103.8,76.3,101.4,73.9,98.4,73.9z"/>
		</g>
		<rect x="109.9" y="71.9" class="st0" width="1.3" height="8.1"/>
		<rect x="83.8" y="72.6" class="st0" width="1" height="7"/>
	</g>
	<g>
		<rect x="113.2" y="64.7" class="st0" width="27.7" height="23.2"/>
		<rect x="114.4" y="80.8" class="st1" width="13.4" height="1.2"/>
		<rect x="114.4" y="85.8" class="st2" width="6" height="0.9"/>
		<rect x="114.4" y="65.8" class="st3" width="25.1" height="13.4"/>
		<rect x="114.4" y="82.5" class="st1" width="23.8" height="0.5"/>
		<rect x="114.4" y="83.6" class="st1" width="23.8" height="0.5"/>
		<rect x="114.4" y="84.7" class="st1" width="16.8" height="0.5"/>
		<path class="st4" d="M139.9,77.8c-0.2-0.7-0.2-1.4-0.3-2.1c0,0.2,0,0.4,0.1,0.4c-0.1-0.7-0.1-1.4,0.3-2c0.1-0.2,0.2-0.4,0.4-0.4
			l-2.5-2.4c-0.1-0.1-0.2-0.1-0.2,0l-3.6,3l-4.7-5.4l-0.1-0.1c-0.1,0-0.1,0-0.1,0.1l-5.5,7v-0.1c0,0.1-0.1,0.1-0.2,0.2
			c-0.4,0.2-0.8,0.6-1.1,1c-0.3,0.4-0.6,0.7-1,1.1l0,0v1c0,0.2,0.2,0.4,0.4,0.4h19C140.2,78.8,140.1,78.3,139.9,77.8z"/>
		<path class="st4" d="M137.8,77.1c-0.3-0.4-1.2-0.4-1.9-0.4c-0.1,0-0.1,0-0.2,0v0.1l-5.8-4.3c-0.1-0.1-0.2-0.1-0.3,0l-4,2.5
			l-5.2-4.5c0,0-0.1-0.1-0.2-0.1s-0.1,0-0.2,0.1l-6.1,5.8c0,0.1,0,0.3,0,0.4c-0.2,0.7-0.1,1.5-0.2,2.2c0,0.1,0,0.2-0.1,0.3h23.8
			c0.3,0,0.4-0.2,0.4-0.3L137.8,77.1C138,77.3,137.8,77.3,137.8,77.1z"/>
		<g>
			<ellipse class="st5" cx="128.1" cy="71" rx="2.9" ry="2.9"/>
			<path class="st5" d="M128.1,73.9c-2.9,0-5.3,2.4-5.3,5.3h10.8C133.4,76.3,131,73.9,128.1,73.9z"/>
		</g>
		<rect x="139.5" y="71.8" class="st0" width="1.2" height="8.1"/>
		<rect x="113.5" y="72.6" class="st0" width="1" height="7"/>
	</g>
	<g>
		<rect x="142.7" y="64.7" class="st0" width="27.7" height="23.2"/>
		<rect x="144" y="80.8" class="st1" width="13.4" height="1.2"/>
		<rect x="144" y="85.8" class="st2" width="6" height="0.9"/>
		<rect x="144" y="65.8" class="st3" width="25.1" height="13.4"/>
		<rect x="144" y="82.5" class="st1" width="23.8" height="0.5"/>
		<rect x="144" y="83.5" class="st1" width="23.8" height="0.5"/>
		<rect x="144" y="84.6" class="st1" width="16.8" height="0.5"/>
		<path class="st4" d="M169.4,77.8c-0.2-0.7-0.2-1.4-0.3-2.1c0,0.2,0,0.4,0.1,0.4c-0.1-0.7-0.1-1.4,0.3-2c0.1-0.2,0.2-0.4,0.4-0.4
			l-2.5-2.4c-0.1-0.1-0.2-0.1-0.2,0l-3.6,3l-4.7-5.4l-0.1-0.1c-0.1,0-0.1,0-0.1,0.1l-5.5,7v-0.1c0,0.1-0.1,0.1-0.2,0.2
			c-0.4,0.2-0.8,0.6-1.1,1s-0.6,0.7-1,1.1l0,0v1c0,0.2,0.2,0.4,0.4,0.4h19C169.8,78.8,169.5,78.3,169.4,77.8z"/>
		<path class="st4" d="M167.2,77.1c-0.3-0.4-1.2-0.4-1.9-0.4c-0.1,0-0.1,0-0.2,0v0.1l-5.8-4.3c-0.1-0.1-0.2-0.1-0.3,0l-4,2.5
			l-5.2-4.5c0,0-0.1-0.1-0.2-0.1s-0.1,0-0.2,0.1l-6.1,5.8c0,0.1,0,0.3,0,0.4c-0.2,0.7-0.1,1.5-0.2,2.2c0,0.1,0,0.2-0.1,0.3h23.8
			c0.3,0,0.4-0.2,0.4-0.3V77.1C167.6,77.3,167.4,77.3,167.2,77.1z"/>
		<g>
			<ellipse class="st5" cx="157.6" cy="71" rx="2.9" ry="2.9"/>
			<path class="st5" d="M157.6,73.9c-2.9,0-5.3,2.4-5.3,5.3H163C162.9,76.3,160.5,73.9,157.6,73.9z"/>
		</g>
		<rect x="169.1" y="72.6" class="st0" width="1.2" height="7.3"/>
		<rect x="143" y="72.5" class="st0" width="1" height="7"/>
	</g>
</g>
<g>
	<path class="st6" d="M173.5,5.4H50.6c-6.4,0-11.7,5.2-11.7,11.7v93.3c0,6.4,5.2,11.7,11.7,11.7h45.1v17.1H79.4
		c-1.3,0-2.3,1-2.3,2.3s1,2.3,2.3,2.3h65.3c1.3,0,2.3-1,2.3-2.3s-1-2.3-2.3-2.3h-16.3v-17.1h45.1c6.4,0,11.7-5.2,11.7-11.7V17
		C185.2,10.6,179.9,5.4,173.5,5.4z M123.7,139.2h-23.3v-17.1h23.3V139.2z M180.5,110.4c0,3.9-3.1,7-7,7H50.6c-3.9,0-7-3.1-7-7v-7
		h136.9V110.4z M180.5,98.7H43.6V17c0-3.9,3.1-7,7-7h122.9c3.9,0,7,3.1,7,7V98.7z"/>
</g>
</svg>
