<?xml version="1.0" encoding="utf-8"?>
<!-- Generator: Adobe Illustrator 23.0.2, SVG Export Plug-In . SVG Version: 6.00 Build 0)  -->
<svg version="1.1" id="Layer_1" xmlns="http://www.w3.org/2000/svg" xmlns:xlink="http://www.w3.org/1999/xlink" x="0px" y="0px"
	 viewBox="0 0 217 150" style="enable-background:new 0 0 217 150;" xml:space="preserve">
<style type="text/css">
	.st0{fill:#E3E3E3;}
	.st1{fill:#333232;}
	.st2{fill:#565656;}
	.st3{fill:#989898;}
	.st4{fill:#878787;}
	.st5{fill:#676767;}
	.st6{fill:#333333;}
	.st7{fill:#FFFFFF;}
</style>
<g>
	<g>
		<rect x="50.2" y="13.9" class="st0" width="36.6" height="31.1"/>
		<rect x="51.8" y="35.5" class="st1" width="17.8" height="1.7"/>
		<rect x="51.8" y="42.4" class="st2" width="7.9" height="1.2"/>
		<rect x="51.8" y="15.5" class="st3" width="33.3" height="18"/>
		<rect x="51.8" y="37.9" class="st1" width="31.5" height="0.8"/>
		<rect x="51.8" y="39.3" class="st1" width="31.5" height="0.8"/>
		<rect x="51.8" y="40.7" class="st1" width="22.3" height="0.8"/>
		<path class="st4" d="M85.6,31.6c-0.3-0.9-0.3-1.9-0.4-2.9c0,0.2,0.1,0.4,0.1,0.6c-0.1-1-0.1-1.9,0.4-2.8c0.1-0.2,0.3-0.4,0.4-0.6
			l-3.3-3.3c-0.1-0.1-0.2-0.1-0.3,0l-4.9,4.1l-6.2-7.3c0,0-0.1-0.1-0.2-0.1s-0.1,0-0.2,0.1l-7.4,9.4v-0.1c-0.1,0.1-0.1,0.1-0.2,0.2
			c-0.6,0.2-1,0.8-1.4,1.3s-0.8,1-1.3,1.4l0,0V33c0,0.3,0.2,0.5,0.5,0.5h25.2C86,32.9,85.7,32.2,85.6,31.6z"/>
		<path class="st4" d="M82.7,30.7c-0.4-0.6-1.7-0.5-2.4-0.5c-0.1,0-0.1,0-0.2,0v0.1l-7.7-5.8c-0.1-0.1-0.2-0.1-0.3,0l-5.3,3.4
			L60,21.8c0,0-0.1-0.1-0.2-0.1c-0.1,0-0.1,0-0.2,0.1l-8,7.8c0,0.1,0,0.3,0,0.5c-0.3,1-0.1,2-0.2,3c0,0.1-0.1,0.3-0.1,0.4h31.6
			c0.3,0,0.6-0.2,0.6-0.4v-2.2C83.1,30.9,82.8,30.9,82.7,30.7z"/>
		<g>
			<circle class="st5" cx="69.8" cy="22.4" r="3.9"/>
			<path class="st5" d="M69.8,26.4c-3.9,0-7.1,3.2-7.1,7.1H77C77,29.6,73.8,26.4,69.8,26.4z"/>
		</g>
		<rect x="85.1" y="23.5" class="st0" width="1.7" height="10.8"/>
		<rect x="50.5" y="24.5" class="st0" width="1.3" height="9.4"/>
	</g>
	<g>
		<rect x="89.6" y="13.9" class="st0" width="37" height="31.1"/>
		<rect x="91.3" y="35.5" class="st1" width="18" height="1.7"/>
		<rect x="91.3" y="42.3" class="st2" width="8" height="1.2"/>
		<rect x="91.3" y="15.5" class="st3" width="33.6" height="18"/>
		<rect x="91.3" y="37.9" class="st1" width="31.9" height="0.8"/>
		<rect x="91.3" y="39.2" class="st1" width="31.9" height="0.8"/>
		<rect x="91.3" y="40.7" class="st1" width="22.6" height="0.8"/>
		<path class="st4" d="M125.4,31.6c-0.3-0.9-0.3-1.9-0.4-2.9c0,0.2,0.1,0.4,0.1,0.6c-0.1-1-0.1-1.9,0.4-2.8c0.1-0.2,0.3-0.4,0.4-0.6
			l-3.3-3.3c-0.1-0.1-0.2-0.1-0.3,0l-4.9,4.1l-6.3-7.3c0,0-0.1-0.1-0.2-0.1s-0.1,0-0.2,0.1l-7.4,9.4v-0.1c-0.1,0.1-0.1,0.1-0.2,0.2
			c-0.6,0.2-1,0.8-1.4,1.3s-0.8,1-1.4,1.4l0,0V33c0,0.3,0.2,0.5,0.5,0.5h25.5C125.8,32.9,125.6,32.2,125.4,31.6z"/>
		<path class="st4" d="M122.4,30.6c-0.4-0.6-1.7-0.5-2.5-0.5c-0.1,0-0.1,0-0.2,0v0.1l-7.8-5.8c-0.1-0.1-0.2-0.1-0.3,0l-5.4,3.4
			l-6.9-6.1c0,0-0.1-0.1-0.2-0.1s-0.1,0-0.2,0.1L91,29.6c0,0.1,0,0.3,0,0.5c-0.3,1-0.1,2-0.2,3c0,0.1-0.1,0.3-0.1,0.4h32
			c0.3,0,0.6-0.2,0.6-0.4v-2.2C122.9,30.9,122.6,30.8,122.4,30.6z"/>
		<g>
			<ellipse class="st5" cx="109.5" cy="22.4" rx="4" ry="3.9"/>
			<path class="st5" d="M109.5,26.3c-4,0-7.2,3.2-7.2,7.1h14.4C116.7,29.5,113.5,26.3,109.5,26.3z"/>
		</g>
		<rect x="124.9" y="23.5" class="st0" width="1.7" height="10.8"/>
		<rect x="90" y="24.5" class="st0" width="1.3" height="9.4"/>
	</g>
	<g>
		<rect x="129.3" y="13.9" class="st0" width="37" height="31.1"/>
		<rect x="131" y="35.4" class="st1" width="18" height="1.7"/>
		<rect x="131" y="42.3" class="st2" width="8" height="1.2"/>
		<rect x="131" y="15.4" class="st3" width="33.6" height="18"/>
		<rect x="131" y="37.9" class="st1" width="31.9" height="0.8"/>
		<rect x="131" y="39.2" class="st1" width="31.9" height="0.8"/>
		<rect x="131" y="40.7" class="st1" width="22.6" height="0.8"/>
		<path class="st4" d="M165.1,31.5c-0.3-0.9-0.3-1.9-0.4-2.9c0,0.2,0.1,0.4,0.1,0.6c-0.1-1-0.1-1.9,0.4-2.8c0.1-0.2,0.3-0.4,0.4-0.6
			l-3.3-3.3c-0.1-0.1-0.2-0.1-0.3,0l-4.9,4.1l-6.3-7.3c0,0-0.1-0.1-0.2-0.1c-0.1,0-0.1,0-0.2,0.1l-7.4,9.4v-0.1
			c-0.1,0.1-0.1,0.1-0.2,0.2c-0.6,0.2-1,0.8-1.4,1.3s-0.8,1-1.4,1.4l0,0v1.3c0,0.3,0.2,0.5,0.5,0.5H166
			C165.5,32.8,165.3,32.2,165.1,31.5z"/>
		<path class="st4" d="M162.1,30.6c-0.4-0.6-1.7-0.5-2.5-0.5c-0.1,0-0.1,0-0.2,0v0.1l-7.8-5.8c-0.1-0.1-0.2-0.1-0.3,0l-5.4,3.4
			l-6.9-6.1c0,0-0.1-0.1-0.2-0.1c-0.1,0-0.1,0-0.2,0.1l-8.1,7.8c0,0.1,0,0.3,0,0.5c-0.3,1-0.1,2-0.2,3c0,0.1-0.1,0.3-0.1,0.4h32
			c0.3,0,0.6-0.2,0.6-0.4v-2.2C162.6,30.8,162.3,30.8,162.1,30.6z"/>
		<g>
			<ellipse class="st5" cx="149.2" cy="22.4" rx="4" ry="3.9"/>
			<path class="st5" d="M149.2,26.3c-4,0-7.2,3.2-7.2,7.1h14.4C156.4,29.5,153.2,26.3,149.2,26.3z"/>
		</g>
		<rect x="164.6" y="23.4" class="st0" width="1.3" height="10.8"/>
		<rect x="129.7" y="24.4" class="st0" width="1.3" height="9.4"/>
	</g>
</g>
<g>
	<g>
		<rect x="50.2" y="47.8" class="st0" width="36.6" height="31.1"/>
		<rect x="51.8" y="69.3" class="st1" width="17.8" height="1.7"/>
		<rect x="51.8" y="76.2" class="st2" width="7.9" height="1.2"/>
		<rect x="51.9" y="49.3" class="st3" width="33.3" height="18"/>
		<rect x="51.8" y="71.8" class="st1" width="31.5" height="0.8"/>
		<rect x="51.8" y="73.1" class="st1" width="31.5" height="0.8"/>
		<rect x="51.8" y="74.6" class="st1" width="22.3" height="0.8"/>
		<path class="st4" d="M85.6,65.4c-0.3-0.9-0.3-1.9-0.4-2.9c0,0.2,0.1,0.4,0.1,0.6c-0.1-1-0.1-1.9,0.4-2.8c0.1-0.2,0.3-0.4,0.4-0.6
			l-3.3-3.3c-0.1-0.1-0.2-0.1-0.3,0l-4.9,4.1l-6.2-7.3c0,0-0.1-0.1-0.2-0.1s-0.1,0-0.2,0.1l-7.4,9.4v-0.1c-0.1,0.1-0.1,0.1-0.2,0.2
			c-0.6,0.2-1,0.8-1.4,1.3s-0.8,1-1.3,1.4l0,0v1.3c0,0.3,0.2,0.5,0.5,0.5h25.2C86,66.7,85.8,66.1,85.6,65.4z"/>
		<path class="st4" d="M82.7,64.5C82.3,63.9,81,64,80.2,64c-0.1,0-0.1,0-0.2,0v0.1l-7.7-5.8c-0.1-0.1-0.2-0.1-0.3,0l-5.3,3.4
			l-6.8-6.1c0,0-0.1-0.1-0.2-0.1c-0.1,0-0.1,0-0.2,0.1l-8,7.8c0,0.1,0,0.3,0,0.5c-0.3,1-0.1,2-0.2,3c0,0.1-0.1,0.3-0.1,0.4h31.6
			c0.3,0,0.6-0.2,0.6-0.4v-2.2C83.1,64.7,82.8,64.7,82.7,64.5z"/>
		<g>
			<circle class="st5" cx="69.9" cy="56.3" r="3.9"/>
			<path class="st5" d="M69.9,60.2c-3.9,0-7.1,3.2-7.1,7.1H77C77,63.4,73.8,60.2,69.9,60.2z"/>
		</g>
		<rect x="85.1" y="57.3" class="st0" width="1.7" height="10.8"/>
		<rect x="50.5" y="58.3" class="st0" width="1.3" height="9.4"/>
	</g>
	<g>
		<rect x="89.6" y="47.7" class="st0" width="37" height="31.1"/>
		<rect x="91.3" y="69.3" class="st1" width="18" height="1.7"/>
		<rect x="91.3" y="76.2" class="st2" width="8" height="1.2"/>
		<rect x="91.3" y="49.3" class="st3" width="33.6" height="18"/>
		<rect x="91.3" y="71.7" class="st1" width="31.9" height="0.8"/>
		<rect x="91.3" y="73.1" class="st1" width="31.9" height="0.8"/>
		<rect x="91.3" y="74.5" class="st1" width="22.6" height="0.8"/>
		<path class="st4" d="M125.4,65.4c-0.3-0.9-0.3-1.9-0.4-2.9c0,0.2,0.1,0.4,0.1,0.6c-0.1-1-0.1-1.9,0.4-2.8c0.1-0.2,0.3-0.4,0.5-0.6
			l-3.3-3.3c-0.1-0.1-0.2-0.1-0.3,0l-4.9,4.1l-6.3-7.3c0,0-0.1-0.1-0.2-0.1s-0.1,0-0.2,0.1l-7.4,9.4v-0.1c-0.1,0.1-0.1,0.1-0.2,0.2
			c-0.6,0.2-1,0.8-1.4,1.3s-0.8,1-1.4,1.4l0,0v1.3c0,0.3,0.2,0.5,0.5,0.5h25.5C125.9,66.7,125.6,66,125.4,65.4z"/>
		<path class="st4" d="M122.5,64.5c-0.4-0.6-1.7-0.5-2.5-0.5c-0.1,0-0.1,0-0.2,0l0,0l-7.8-5.8c-0.1-0.1-0.2-0.1-0.3,0l-5.4,3.4
			l-6.9-6.1c0,0-0.1-0.1-0.2-0.1s-0.1,0-0.2,0.1l-8,7.9c0,0.1,0,0.3,0,0.5c-0.3,1-0.1,2-0.2,3c0,0.1-0.1,0.3-0.1,0.4h32
			c0.3,0,0.6-0.2,0.6-0.4v-2.2C122.9,64.7,122.6,64.7,122.5,64.5z"/>
		<g>
			<ellipse class="st5" cx="109.5" cy="56.2" rx="4" ry="3.9"/>
			<path class="st5" d="M109.5,60.2c-4,0-7.2,3.2-7.2,7.1h14.4C116.7,63.3,113.5,60.2,109.5,60.2z"/>
		</g>
		<rect x="125" y="57.3" class="st0" width="1.7" height="10.8"/>
		<rect x="90" y="58.3" class="st0" width="1.3" height="9.4"/>
	</g>
	<g>
		<rect x="129.4" y="47.7" class="st0" width="37" height="31.1"/>
		<rect x="131" y="69.3" class="st1" width="18" height="1.7"/>
		<rect x="131" y="76.1" class="st2" width="8" height="1.2"/>
		<rect x="131" y="49.2" class="st3" width="33.6" height="18"/>
		<rect x="131" y="71.7" class="st1" width="31.9" height="0.8"/>
		<rect x="131" y="73" class="st1" width="31.9" height="0.8"/>
		<rect x="131" y="74.5" class="st1" width="22.6" height="0.8"/>
		<path class="st4" d="M165.1,65.4c-0.3-0.9-0.3-1.9-0.4-2.9c0,0.2,0.1,0.4,0.1,0.6c-0.1-1-0.1-1.9,0.4-2.8c0.1-0.2,0.3-0.4,0.5-0.6
			l-3.3-3.3c-0.1-0.1-0.2-0.1-0.3,0l-4.9,4.1l-6.3-7.3c0,0-0.1-0.1-0.2-0.1c-0.1,0-0.1,0-0.2,0.1l-7.4,9.4v-0.1
			c-0.1,0.1-0.1,0.1-0.2,0.2c-0.6,0.2-1,0.8-1.4,1.3s-0.8,1-1.4,1.4l0,0v1.3c0,0.3,0.2,0.5,0.5,0.5H166
			C165.6,66.6,165.3,66,165.1,65.4z"/>
		<path class="st4" d="M162.2,64.4c-0.4-0.6-1.7-0.5-2.5-0.5c-0.1,0-0.1,0-0.2,0V64l-7.8-5.8c-0.1-0.1-0.2-0.1-0.3,0l-5.4,3.4
			l-6.9-6.1c0,0-0.1-0.1-0.2-0.1c-0.1,0-0.1,0-0.2,0.1l-8.1,7.8c0,0.1,0,0.3,0,0.5c-0.3,1-0.1,2-0.2,3c0,0.1-0.1,0.3-0.1,0.4h32
			c0.3,0,0.6-0.2,0.6-0.4v-2.2C162.7,64.7,162.3,64.6,162.2,64.4z"/>
		<g>
			<ellipse class="st5" cx="149.2" cy="56.2" rx="4" ry="3.9"/>
			<path class="st5" d="M149.2,60.1c-4,0-7.2,3.2-7.2,7.1h14.4C156.4,63.3,153.2,60.1,149.2,60.1z"/>
		</g>
		<rect x="164.7" y="57.3" class="st0" width="1.3" height="10.8"/>
		<rect x="129.7" y="58.2" class="st0" width="1.3" height="9.4"/>
	</g>
</g>
<g>
	<g>
		<rect x="50.1" y="81.6" class="st0" width="36.6" height="31.1"/>
		<rect x="51.7" y="103.2" class="st1" width="17.8" height="1.7"/>
		<rect x="51.7" y="110.1" class="st2" width="7.9" height="1.2"/>
		<rect x="51.7" y="83.2" class="st3" width="33.3" height="18"/>
		<rect x="51.7" y="105.7" class="st1" width="31.5" height="0.8"/>
		<rect x="51.7" y="107" class="st1" width="31.5" height="0.8"/>
		<rect x="51.7" y="108.5" class="st1" width="22.3" height="0.8"/>
		<path class="st4" d="M85.4,99.3c-0.3-0.9-0.3-1.9-0.4-2.9c0,0.2,0.1,0.4,0.1,0.6c-0.1-1-0.1-1.9,0.4-2.8c0.1-0.2,0.3-0.4,0.4-0.6
			l-3.3-3.3c-0.1-0.1-0.2-0.1-0.3,0l-4.9,4.1l-6.2-7.3c0,0-0.1-0.1-0.2-0.1s-0.1,0-0.2,0.1l-7.4,9.4v-0.1c-0.1,0.1-0.1,0.1-0.2,0.2
			c-0.6,0.2-1,0.8-1.4,1.3s-0.8,1-1.3,1.4l0,0v1.3c0,0.3,0.2,0.5,0.5,0.5h25.2C85.9,100.6,85.6,99.9,85.4,99.3z"/>
		<path class="st4" d="M82.5,98.4c-0.4-0.6-1.7-0.5-2.4-0.5c-0.1,0-0.1,0-0.2,0V98l-7.7-5.8c-0.1-0.1-0.2-0.1-0.3,0l-5.3,3.4
			l-6.8-6.1c0,0-0.1-0.1-0.2-0.1c-0.1,0-0.1,0-0.2,0.1l-8,7.8c0,0.1,0,0.3,0,0.5c-0.3,1-0.1,2-0.2,3c0,0.1-0.1,0.3-0.1,0.4h31.6
			c0.3,0,0.6-0.2,0.6-0.4v-2.2C83,98.6,82.7,98.6,82.5,98.4z"/>
		<g>
			<circle class="st5" cx="69.7" cy="90.1" r="3.9"/>
			<path class="st5" d="M69.7,94.1c-3.9,0-7.1,3.2-7.1,7.1h14.2C76.8,97.3,73.6,94.1,69.7,94.1z"/>
		</g>
		<rect x="85" y="91.2" class="st0" width="1.7" height="10.8"/>
		<rect x="50.4" y="92.2" class="st0" width="1.3" height="9.4"/>
	</g>
	<g>
		<rect x="89.5" y="81.6" class="st0" width="37" height="31.1"/>
		<rect x="91.1" y="103.2" class="st1" width="18" height="1.7"/>
		<rect x="91.1" y="110" class="st2" width="8" height="1.2"/>
		<rect x="91.2" y="83.2" class="st3" width="33.6" height="18"/>
		<rect x="91.1" y="105.6" class="st1" width="31.9" height="0.8"/>
		<rect x="91.1" y="107" class="st1" width="31.9" height="0.8"/>
		<rect x="91.1" y="108.4" class="st1" width="22.6" height="0.8"/>
		<path class="st4" d="M125.3,99.3c-0.3-0.9-0.3-1.9-0.4-2.9c0,0.2,0.1,0.4,0.1,0.6c-0.1-1-0.1-1.9,0.4-2.8c0.1-0.2,0.3-0.4,0.5-0.6
			l-3.3-3.3c-0.1-0.1-0.2-0.1-0.3,0l-4.9,4.1l-6.3-7.3c0,0-0.1-0.1-0.2-0.1s-0.1,0-0.2,0.1l-7.4,9.4v-0.1c-0.1,0.1-0.1,0.1-0.2,0.2
			c-0.6,0.2-1,0.8-1.4,1.3s-0.8,1-1.4,1.4l0,0v1.3c0,0.3,0.2,0.5,0.5,0.5h25.5C125.7,100.6,125.4,99.9,125.3,99.3z"/>
		<path class="st4" d="M122.3,98.3c-0.4-0.6-1.7-0.5-2.5-0.5c-0.1,0-0.1,0-0.2,0v0.1l-7.8-5.8c-0.1-0.1-0.2-0.1-0.3,0l-5.4,3.4
			l-6.9-6.1c0,0-0.1-0.1-0.2-0.1s-0.1,0-0.2,0.1l-8.1,7.8c0,0.1,0,0.3,0,0.5c-0.3,1-0.1,2-0.2,3c0,0.1-0.1,0.3-0.1,0.4h32
			c0.3,0,0.6-0.2,0.6-0.4v-2.2C122.8,98.6,122.5,98.5,122.3,98.3z"/>
		<g>
			<ellipse class="st5" cx="109.4" cy="90.1" rx="4" ry="3.9"/>
			<path class="st5" d="M109.4,94c-4,0-7.2,3.2-7.2,7.1h14.4C116.6,97.2,113.3,94,109.4,94z"/>
		</g>
		<rect x="124.8" y="91.2" class="st0" width="1.7" height="10.8"/>
		<rect x="89.8" y="92.2" class="st0" width="1.3" height="9.4"/>
	</g>
	<g>
		<rect x="129.2" y="81.6" class="st0" width="37" height="31.1"/>
		<rect x="130.9" y="103.2" class="st1" width="18" height="1.7"/>
		<rect x="130.9" y="110" class="st2" width="8" height="1.2"/>
		<rect x="130.9" y="83.1" class="st3" width="33.6" height="18"/>
		<rect x="130.9" y="105.6" class="st1" width="31.9" height="0.8"/>
		<rect x="130.9" y="106.9" class="st1" width="31.9" height="0.8"/>
		<rect x="130.9" y="108.4" class="st1" width="22.6" height="0.8"/>
		<path class="st4" d="M165,99.2c-0.3-0.9-0.3-1.9-0.4-2.9c0,0.2,0.1,0.4,0.1,0.6c-0.1-1-0.1-1.9,0.4-2.8c0.1-0.2,0.3-0.4,0.5-0.6
			l-3.3-3.3c-0.1-0.1-0.2-0.1-0.3,0l-4.9,4.1l-6.3-7.3c0,0-0.1-0.1-0.2-0.1c-0.1,0-0.1,0-0.2,0.1l-7.4,9.4v-0.1
			c-0.1,0.1-0.1,0.1-0.2,0.2c-0.6,0.2-1,0.8-1.4,1.3s-0.8,1-1.4,1.4l0,0v1.3c0,0.3,0.2,0.5,0.5,0.5H166
			C165.4,100.5,165.2,99.9,165,99.2z"/>
		<path class="st4" d="M162,98.3c-0.4-0.6-1.7-0.5-2.5-0.5c-0.1,0-0.1,0-0.2,0v0.1l-7.8-5.8c-0.1-0.1-0.2-0.1-0.3,0l-5.4,3.4
			l-6.9-6.1c0,0-0.1-0.1-0.2-0.1c-0.1,0-0.1,0-0.2,0.1l-8.1,7.8c0,0.1,0,0.3,0,0.5c-0.3,1-0.1,2-0.2,3c0,0.1-0.1,0.3-0.1,0.4h32
			c0.3,0,0.6-0.2,0.6-0.4v-2.2C162.5,98.5,162.2,98.5,162,98.3z"/>
		<g>
			<ellipse class="st5" cx="149.1" cy="90.1" rx="4" ry="3.9"/>
			<path class="st5" d="M149.1,94c-4,0-7.2,3.2-7.2,7.1h14.4C156.3,97.2,153.1,94,149.1,94z"/>
		</g>
		<rect x="164.5" y="91.1" class="st0" width="1.3" height="10.8"/>
		<rect x="129.6" y="92.1" class="st0" width="1.3" height="9.4"/>
	</g>
</g>
<g>
	<path class="st6" d="M169.5,5.3H46.6c-6.4,0-11.7,5.2-11.7,11.7v93.3c0,6.4,5.2,11.7,11.7,11.7h45.1v17.1H75.4
		c-1.3,0-2.3,1-2.3,2.3s1,2.3,2.3,2.3h65.3c1.3,0,2.3-1,2.3-2.3s-1-2.3-2.3-2.3h-16.3V122h45.1c6.4,0,11.7-5.2,11.7-11.7V17
		C181.1,10.5,175.9,5.3,169.5,5.3z M119.7,139.1H96.4V122h23.3V139.1z M176.5,110.3c0,3.9-3.1,7-7,7H46.6c-3.9,0-7-3.1-7-7v-7h136.9
		V110.3z M176.5,98.6H39.6V17c0-3.9,3.1-7,7-7h122.9c3.9,0,7,3.1,7,7V98.6z"/>
</g>
<rect x="45.2" y="103.3" class="st7" width="124.6" height="11.4"/>
</svg>
