<?xml version="1.0" encoding="utf-8"?>
<!-- Generator: Adobe Illustrator 23.0.2, SVG Export Plug-In . SVG Version: 6.00 Build 0)  -->
<svg version="1.1" id="Layer_1" xmlns="http://www.w3.org/2000/svg" xmlns:xlink="http://www.w3.org/1999/xlink" x="0px" y="0px"
	 viewBox="0 0 217 150" style="enable-background:new 0 0 217 150;" xml:space="preserve">
<style type="text/css">
	.st0{fill:#333333;}
	.st1{fill:#E3E3E3;}
	.st2{fill:#333232;}
	.st3{fill:#565656;}
	.st4{fill:#989898;}
	.st5{fill:#878787;}
	.st6{fill:#676767;}
</style>
<g>
	<path class="st0" d="M167.5,5.4H44.6c-6.4,0-11.7,5.2-11.7,11.7v93.3c0,6.4,5.2,11.7,11.7,11.7h45.1v17.1H73.4
		c-1.3,0-2.3,1-2.3,2.3s1,2.3,2.3,2.3h65.3c1.3,0,2.3-1,2.3-2.3s-1-2.3-2.3-2.3h-16.3v-17.1h45.1c6.4,0,11.7-5.2,11.7-11.7V17
		C179.2,10.6,173.9,5.4,167.5,5.4z M117.7,139.2H94.4v-17.1h23.3V139.2z M174.5,110.4c0,3.9-3.1,7-7,7H44.6c-3.9,0-7-3.1-7-7v-7
		h136.9V110.4z M174.5,98.7H37.6V17c0-3.9,3.1-7,7-7h122.9c3.9,0,7,3.1,7,7V98.7z"/>
</g>
<g>
	<rect x="48.2" y="14.4" class="st1" width="115.7" height="80"/>
	<rect x="53.5" y="62.7" class="st2" width="57.7" height="5.6"/>
	<rect x="53.5" y="84.9" class="st3" width="25.8" height="3.8"/>
	<rect x="53.5" y="19.4" class="st4" width="105" height="38.7"/>
	<rect x="53.5" y="70.6" class="st2" width="102.4" height="2.5"/>
	<rect x="53.5" y="74.9" class="st2" width="102.4" height="2.5"/>
	<rect x="53.5" y="79.7" class="st2" width="72.4" height="2.5"/>
	<path class="st5" d="M163,56.8c0-0.7,0-1.4,0-2c0-0.2,0.1-0.5,0.1-0.7c-1.1-1-1.1-2.9,0.1-3.9l0.1-0.1c-1.1-0.8-3.1-0.7-4.4-0.7
		c-0.2,0-0.3,0-0.4-0.1v0.2l-15.7-15.6c-0.2-0.2-0.5-0.2-0.6,0l-10.9,9.2l-13.9-16.4c-0.1-0.1-0.2-0.2-0.4-0.2
		c-0.1,0-0.3,0.1-0.4,0.2l-16.5,21.1v-0.2c-0.1,0.2-0.3,0.3-0.5,0.4c-1.4,0.5-2.3,1.9-3.2,3c-0.9,1.1-1.8,2.2-3,3.1
		c0,0-0.1,0-0.1,0.1v2.9c0,0.6,0.5,1.1,1.1,1.1h68.9C163.1,57.8,163,57.3,163,56.8z"/>
	<path class="st5" d="M137.7,50.7c-1.1-1.5-4.6-1.3-6.6-1.3c-0.2,0-0.4,0-0.6-0.1v0.2l-20.7-15.6c-0.2-0.2-0.6-0.2-0.9,0l-14.4,9.2
		L76.3,26.7c-0.1-0.1-0.3-0.2-0.5-0.2s-0.4,0.1-0.5,0.2L53.6,47.8c0.1,0.4,0.1,0.8-0.1,1.3c-0.8,2.6-0.3,5.4-0.6,8
		c0,0.4-0.1,0.8-0.3,1.1h85.5c0.8,0,1.5-0.5,1.5-1.1v-6C139,51.3,138.1,51.2,137.7,50.7z"/>
	<g>
		<circle class="st6" cx="106.7" cy="32.5" r="9.2"/>
		<path class="st6" d="M106.7,41.7c-9.2,0-16.6,7.4-16.6,16.6h33.2C123.3,49.1,115.9,41.7,106.7,41.7z"/>
	</g>
	<rect x="158.6" y="45.4" class="st1" width="5.3" height="13.8"/>
	<rect x="50.6" y="44.5" class="st1" width="3" height="14.8"/>
</g>
</svg>
