<?xml version="1.0" encoding="utf-8"?>
<!-- Generator: Adobe Illustrator 23.0.2, SVG Export Plug-In . SVG Version: 6.00 Build 0)  -->
<svg version="1.1" id="Layer_1" xmlns="http://www.w3.org/2000/svg" xmlns:xlink="http://www.w3.org/1999/xlink" x="0px" y="0px"
	 viewBox="0 0 217 150" style="enable-background:new 0 0 217 150;" xml:space="preserve">
<style type="text/css">
	.st0{fill:#E3E3E3;}
	.st1{fill:#323232;}
	.st2{fill:#555555;}
	.st3{fill:#999999;}
	.st4{fill:#878787;}
	.st5{fill:#666666;}
</style>
<rect x="-0.4" class="st0" width="217" height="150"/>
<rect x="107.1" y="14.5" class="st1" width="56" height="10.5"/>
<rect x="107.1" y="93" class="st2" width="48.3" height="7.1"/>
<rect x="9.5" y="10.8" class="st3" width="90.5" height="129.7"/>
<rect x="107.1" y="30.9" class="st1" width="100.6" height="4.6"/>
<rect x="107.1" y="39" class="st1" width="100.6" height="4.6"/>
<rect x="107.1" y="47.9" class="st1" width="100.6" height="4.6"/>
<rect x="107.1" y="56" class="st1" width="100.6" height="4.6"/>
<rect x="107.1" y="64.1" class="st1" width="100.6" height="4.6"/>
<rect x="107.1" y="73" class="st1" width="100.6" height="4.6"/>
<rect x="107.1" y="80.4" class="st1" width="29.3" height="4.6"/>
<path class="st4" d="M112,114.1c-1.4-5.2-5.9-4.4-8.5-4.4c-0.3,0-0.5-0.1-0.7-0.3v0.6L76.1,56c-0.3-0.6-0.8-0.6-1.1-0.1L56.4,87.7
	L32.7,30.8c-0.2-0.4-0.4-0.6-0.6-0.6c-0.2,0-0.5,0.2-0.6,0.6l-28,73.2c0.1,1.3,0.1,2.8-0.1,4.5c-1,9.1-0.4,18.6-0.7,27.9
	c-0.1,1.3-0.2,2.6-0.4,3.8h110.1c1.1,0,1.9-1.7,1.9-3.8v-20.9C113.6,116.3,112.5,115.9,112,114.1z"/>
<g>
	<circle class="st5" cx="57" cy="84.9" r="19.5"/>
	<path class="st5" d="M57,104.4c-19.5,0-35.4,15.8-35.4,35.4h70.8C92.4,120.3,76.5,104.4,57,104.4z"/>
</g>
<rect x="100" y="102.3" class="st0" width="20.4" height="40.3"/>
<rect y="87.2" class="st0" width="9.5" height="61.7"/>
</svg>
