<?xml version="1.0" encoding="utf-8"?>
<!-- Generator: Adobe Illustrator 23.0.2, SVG Export Plug-In . SVG Version: 6.00 Build 0)  -->
<svg version="1.1" id="Layer_1" xmlns="http://www.w3.org/2000/svg" xmlns:xlink="http://www.w3.org/1999/xlink" x="0px" y="0px"
	 viewBox="0 0 217 150" style="enable-background:new 0 0 217 150;" xml:space="preserve">
<style type="text/css">
	.st0{fill:#333333;}
	.st1{fill:#E3E3E3;}
	.st2{fill:#333232;}
	.st3{fill:#565656;}
	.st4{fill:#989898;}
	.st5{fill:#878787;}
	.st6{fill:#676767;}
</style>
<g>
	<g>
		<path class="st0" d="M123.1,10H99.7c-1.3,0-2.3,1-2.3,2.3s1,2.3,2.3,2.3H123c1.3,0,2.3-1,2.3-2.3C125.4,11.1,124.4,10,123.1,10z"
			/>
	</g>
</g>
<g>
	<g>
		<path class="st0" d="M139.4,10h-2.3c-1.3,0-2.3,1-2.3,2.3s1,2.3,2.3,2.3h2.3c1.3,0,2.3-1,2.3-2.3C141.8,11.1,140.7,10,139.4,10z"
			/>
	</g>
</g>
<g>
	<g>
		<path class="st0" d="M114.3,122h-5.8c-3.5,0-6.4,2.9-6.4,6.4v1.1c0,3.5,2.9,6.4,6.4,6.4h5.8c3.5,0,6.4-2.9,6.4-6.4v-1.1
			C120.8,124.9,117.9,122,114.3,122z M116.1,129.6c0,1-0.8,1.8-1.8,1.8h-5.8c-1,0-1.8-0.8-1.8-1.8v-1.1c0-1,0.8-1.8,1.8-1.8h5.8
			c1,0,1.8,0.8,1.8,1.8V129.6z"/>
	</g>
</g>
<g>
	<g>
		<path class="st0" d="M142.7,3H80.2c-4.7,0-8.4,3.8-8.4,8.4v123.2c0,4.7,3.8,8.4,8.4,8.4h62.5c4.7,0,8.4-3.8,8.4-8.4V11.4
			C151.1,6.8,147.3,3,142.7,3z M146.4,134.6c0,2.1-1.7,3.8-3.8,3.8H80.2c-2.1,0-3.8-1.7-3.8-3.8V11.4c0-2.1,1.7-3.8,3.8-3.8h62.5
			c2.1,0,3.8,1.7,3.8,3.8L146.4,134.6L146.4,134.6z"/>
	</g>
</g>
<g>
	<g>
		<path class="st0" d="M148.8,17H74.1c-1.3,0-2.3,1-2.3,2.3v98c0,1.3,1,2.3,2.3,2.3h74.7c1.3,0,2.3-1,2.3-2.3v-98
			C151.1,18.1,150,17,148.8,17z M146.4,115h-70V21.7h70V115z"/>
	</g>
</g>
<g>
	<g>
		<rect x="80" y="28.6" class="st1" width="30.5" height="24.3"/>
		<rect x="81.3" y="45.5" class="st2" width="14.8" height="1.3"/>
		<rect x="81.3" y="50.9" class="st3" width="6.6" height="0.9"/>
		<rect x="81.4" y="29.8" class="st4" width="27.7" height="14.1"/>
		<rect x="81.3" y="47.4" class="st2" width="26.2" height="0.6"/>
		<rect x="81.3" y="48.4" class="st2" width="26.2" height="0.6"/>
		<rect x="81.3" y="49.6" class="st2" width="18.5" height="0.6"/>
		<path class="st5" d="M109.4,42.4c-0.2-0.7-0.2-1.5-0.3-2.3c0,0.2,0,0.3,0.1,0.5c-0.1-0.8-0.1-1.5,0.3-2.2c0.1-0.2,0.2-0.3,0.4-0.5
			l-2.7-2.6c-0.1-0.1-0.2-0.1-0.2,0l-4,3.2l-5.2-5.7l-0.1-0.1c-0.1,0-0.1,0-0.1,0.1l-6.1,7.4v-0.1c0,0.1-0.1,0.1-0.2,0.2
			c-0.5,0.2-0.9,0.7-1.2,1c-0.3,0.4-0.7,0.8-1.1,1.1l0,0v1c0,0.2,0.2,0.4,0.4,0.4h20.9C109.8,43.4,109.5,42.9,109.4,42.4z"/>
		<path class="st5" d="M107,41.7c-0.3-0.4-1.4-0.4-2-0.4c-0.1,0-0.1,0-0.2,0l0,0l-6.4-4.5c-0.1,0-0.2-0.1-0.3,0l-4.4,2.7L88,34.8
			c0,0-0.1,0-0.2,0s-0.1,0-0.1,0.1L81,41c0,0.1,0,0.2,0,0.4c-0.2,0.8-0.1,1.5-0.2,2.3c0,0.1,0,0.2-0.1,0.3H107
			c0.3,0,0.5-0.1,0.5-0.3V42C107.4,41.9,107.1,41.9,107,41.7z"/>
		<g>
			<ellipse class="st6" cx="96.3" cy="35.3" rx="3.3" ry="3.1"/>
			<path class="st6" d="M96.3,38.3c-3.3,0-5.9,2.5-5.9,5.6h11.8C102.2,40.8,99.6,38.3,96.3,38.3z"/>
		</g>
		<rect x="109" y="36.1" class="st1" width="1.4" height="8.5"/>
		<rect x="80.3" y="36.9" class="st1" width="1.1" height="7.4"/>
	</g>
	<g>
		<rect x="111.8" y="28.6" class="st1" width="30.8" height="24.3"/>
		<rect x="113.2" y="45.5" class="st2" width="14.9" height="1.3"/>
		<rect x="113.2" y="50.8" class="st3" width="6.7" height="0.9"/>
		<rect x="113.2" y="29.8" class="st4" width="28" height="14.1"/>
		<rect x="113.2" y="47.4" class="st2" width="26.5" height="0.6"/>
		<rect x="113.2" y="48.4" class="st2" width="26.5" height="0.6"/>
		<rect x="113.2" y="49.6" class="st2" width="18.8" height="0.6"/>
		<path class="st5" d="M141.5,42.4c-0.2-0.7-0.2-1.5-0.3-2.3c0,0.2,0,0.3,0.1,0.5c-0.1-0.8-0.1-1.5,0.3-2.2c0.1-0.2,0.2-0.3,0.4-0.5
			l-2.8-2.6c-0.1-0.1-0.2-0.1-0.2,0l-4.1,3.2l-5.2-5.7l-0.1-0.1c-0.1,0-0.1,0-0.1,0.1l-6.2,7.4v-0.1c0,0.1-0.1,0.1-0.2,0.2
			c-0.5,0.2-0.9,0.7-1.2,1c-0.3,0.4-0.7,0.8-1.1,1.1l0,0v1c0,0.2,0.2,0.4,0.4,0.4h21.2C141.9,43.4,141.7,42.9,141.5,42.4z"/>
		<path class="st5" d="M139.1,41.7c-0.3-0.4-1.4-0.4-2-0.4c-0.1,0-0.1,0-0.2,0l0,0l-6.4-4.5c-0.1,0-0.2-0.1-0.3,0l-4.5,2.7l-5.7-4.7
			c0,0-0.1,0-0.2,0s-0.1,0-0.1,0.1L113,41c0,0.1,0,0.2,0,0.4c-0.2,0.8-0.1,1.5-0.2,2.3c0,0.1,0,0.2-0.1,0.3h26.6
			c0.3,0,0.5-0.1,0.5-0.3V42C139.5,41.9,139.2,41.8,139.1,41.7z"/>
		<g>
			<ellipse class="st6" cx="128.3" cy="35.2" rx="3.3" ry="3.1"/>
			<path class="st6" d="M128.3,38.3c-3.3,0-6,2.5-6,5.6h12C134.3,40.8,131.6,38.3,128.3,38.3z"/>
		</g>
		<rect x="141.2" y="36.1" class="st1" width="1.4" height="8.5"/>
		<rect x="112.1" y="36.8" class="st1" width="1.1" height="7.4"/>
	</g>
</g>
<g>
	<g>
		<rect x="80" y="56.4" class="st1" width="30.5" height="25.9"/>
		<rect x="81.4" y="74.3" class="st2" width="14.8" height="1.4"/>
		<rect x="81.4" y="80" class="st3" width="6.6" height="1"/>
		<rect x="81.4" y="57.6" class="st4" width="27.7" height="15"/>
		<rect x="81.4" y="76.3" class="st2" width="26.2" height="0.6"/>
		<rect x="81.4" y="77.4" class="st2" width="26.2" height="0.6"/>
		<rect x="81.4" y="78.6" class="st2" width="18.5" height="0.6"/>
		<path class="st5" d="M109.4,71c-0.2-0.8-0.2-1.6-0.3-2.4c0,0.2,0,0.4,0.1,0.5c-0.1-0.8-0.1-1.6,0.3-2.3c0.1-0.2,0.2-0.4,0.4-0.5
			l-2.7-2.7c-0.1-0.1-0.2-0.1-0.2,0l-4,3.4l-5.2-6.1l-0.1-0.1c-0.1,0-0.1,0-0.1,0.1l-6.1,7.9v-0.1c0,0.1-0.1,0.1-0.2,0.2
			c-0.5,0.2-0.9,0.7-1.2,1.1c-0.3,0.4-0.7,0.8-1.1,1.2l0,0v1.1c0,0.2,0.2,0.4,0.4,0.4h20.9C109.8,72.1,109.6,71.6,109.4,71z"/>
		<path class="st5" d="M107,70.3c-0.3-0.5-1.4-0.4-2-0.4c-0.1,0-0.1,0-0.2,0V70l-6.4-4.8c-0.1-0.1-0.2-0.1-0.3,0L93.7,68L88,63
			c0,0-0.1-0.1-0.2-0.1s-0.1,0-0.1,0.1L81,69.5c0,0.1,0,0.3,0,0.4c-0.2,0.8-0.1,1.6-0.2,2.5c0,0.1,0,0.2-0.1,0.3H107
			c0.3,0,0.5-0.2,0.5-0.3v-1.8C107.4,70.4,107.1,70.4,107,70.3z"/>
		<g>
			<circle class="st6" cx="96.4" cy="63.4" r="3.3"/>
			<path class="st6" d="M96.4,66.7c-3.3,0-5.9,2.6-5.9,5.9h11.8C102.3,69.3,99.6,66.7,96.4,66.7z"/>
		</g>
		<rect x="109" y="64.3" class="st1" width="1.4" height="9"/>
		<rect x="80.3" y="65.1" class="st1" width="1.1" height="7.8"/>
	</g>
	<g>
		<rect x="111.8" y="56.3" class="st1" width="30.8" height="25.9"/>
		<rect x="113.2" y="74.3" class="st2" width="14.9" height="1.4"/>
		<rect x="113.2" y="80" class="st3" width="6.7" height="1"/>
		<rect x="113.2" y="57.6" class="st4" width="28" height="15"/>
		<rect x="113.2" y="76.3" class="st2" width="26.5" height="0.6"/>
		<rect x="113.2" y="77.4" class="st2" width="26.5" height="0.6"/>
		<rect x="113.2" y="78.6" class="st2" width="18.8" height="0.6"/>
		<path class="st5" d="M141.6,71c-0.2-0.8-0.2-1.6-0.3-2.4c0,0.2,0,0.4,0.1,0.5c-0.1-0.8-0.1-1.6,0.3-2.3c0.1-0.2,0.2-0.4,0.4-0.5
			l-2.8-2.7c-0.1-0.1-0.2-0.1-0.2,0L135,67l-5.2-6.1l-0.1-0.1c-0.1,0-0.1,0-0.1,0.1l-6.2,7.9v-0.1c0,0.1-0.1,0.1-0.2,0.2
			c-0.5,0.2-0.9,0.7-1.2,1.1c-0.3,0.4-0.7,0.8-1.1,1.2l0,0v1.1c0,0.2,0.2,0.4,0.4,0.4h21.2C142,72.1,141.7,71.5,141.6,71z"/>
		<path class="st5" d="M139.1,70.2c-0.3-0.5-1.4-0.4-2-0.4c-0.1,0-0.1,0-0.2,0v0.1l-6.4-4.8c-0.1-0.1-0.2-0.1-0.3,0l-4.5,2.8l-5.7-5
			c0,0-0.1-0.1-0.2-0.1s-0.1,0-0.1,0.1l-6.7,6.5c0,0.1,0,0.3,0,0.4c-0.2,0.8-0.1,1.6-0.2,2.5c0,0.1,0,0.2-0.1,0.3h26.6
			c0.3,0,0.5-0.2,0.5-0.3v-1.8C139.5,70.4,139.3,70.4,139.1,70.2z"/>
		<g>
			<ellipse class="st6" cx="128.4" cy="63.4" rx="3.3" ry="3.3"/>
			<path class="st6" d="M128.4,66.6c-3.3,0-6,2.6-6,5.9h12C134.3,69.3,131.7,66.6,128.4,66.6z"/>
		</g>
		<rect x="141.2" y="64.3" class="st1" width="1.4" height="9"/>
		<rect x="112.1" y="65.1" class="st1" width="1.1" height="7.8"/>
	</g>
</g>
<g>
	<g>
		<rect x="80" y="85.9" class="st1" width="30.5" height="25.9"/>
		<rect x="81.4" y="103.8" class="st2" width="14.8" height="1.4"/>
		<rect x="81.4" y="109.5" class="st3" width="6.6" height="1"/>
		<rect x="81.4" y="87.2" class="st4" width="27.7" height="15"/>
		<rect x="81.4" y="105.8" class="st2" width="26.2" height="0.6"/>
		<rect x="81.4" y="106.9" class="st2" width="26.2" height="0.6"/>
		<rect x="81.4" y="108.1" class="st2" width="18.5" height="0.6"/>
		<path class="st5" d="M109.4,100.5c-0.2-0.8-0.2-1.6-0.3-2.4c0,0.2,0,0.4,0.1,0.5c-0.1-0.8-0.1-1.6,0.3-2.3
			c0.1-0.2,0.2-0.4,0.4-0.5l-2.7-2.7c-0.1-0.1-0.2-0.1-0.2,0l-4,3.4l-5.2-6.1l-0.1-0.1c-0.1,0-0.1,0-0.1,0.1l-6.1,7.9v-0.1
			c0,0.1-0.1,0.1-0.2,0.2c-0.5,0.2-0.9,0.7-1.2,1.1c-0.3,0.4-0.7,0.8-1.1,1.2l0,0v1.1c0,0.2,0.2,0.4,0.4,0.4h20.9
			C109.8,101.6,109.6,101.1,109.4,100.5z"/>
		<path class="st5" d="M107,99.8c-0.3-0.5-1.4-0.4-2-0.4c-0.1,0-0.1,0-0.2,0v0.1l-6.4-4.8c-0.1-0.1-0.2-0.1-0.3,0l-4.4,2.8l-5.7-5
			c0,0-0.1-0.1-0.2-0.1s-0.1,0-0.1,0.1L81,99c0,0.1,0,0.3,0,0.4c-0.2,0.8-0.1,1.6-0.2,2.5c0,0.1,0,0.2-0.1,0.3H107
			c0.3,0,0.5-0.2,0.5-0.3v-1.8C107.4,100,107.1,99.9,107,99.8z"/>
		<g>
			<circle class="st6" cx="96.4" cy="92.9" r="3.3"/>
			<path class="st6" d="M96.4,96.2c-3.3,0-5.9,2.6-5.9,5.9h11.8C102.3,98.8,99.6,96.2,96.4,96.2z"/>
		</g>
		<rect x="109" y="93.8" class="st1" width="1.4" height="9"/>
		<rect x="80.3" y="94.6" class="st1" width="1.1" height="7.8"/>
	</g>
	<g>
		<rect x="111.8" y="85.8" class="st1" width="30.8" height="25.9"/>
		<rect x="113.2" y="103.8" class="st2" width="14.9" height="1.4"/>
		<rect x="113.2" y="109.5" class="st3" width="6.7" height="1"/>
		<rect x="113.2" y="87.1" class="st4" width="28" height="15"/>
		<rect x="113.2" y="105.8" class="st2" width="26.5" height="0.6"/>
		<rect x="113.2" y="106.9" class="st2" width="26.5" height="0.6"/>
		<rect x="113.2" y="108.1" class="st2" width="18.8" height="0.6"/>
		<path class="st5" d="M141.6,100.5c-0.2-0.8-0.2-1.6-0.3-2.4c0,0.2,0,0.4,0.1,0.5c-0.1-0.8-0.1-1.6,0.3-2.3
			c0.1-0.2,0.2-0.4,0.4-0.5l-2.8-2.7c-0.1-0.1-0.2-0.1-0.2,0l-4.1,3.4l-5.2-6.1l-0.1-0.1c-0.1,0-0.1,0-0.1,0.1l-6.2,7.9v-0.1
			c0,0.1-0.1,0.1-0.2,0.2c-0.5,0.2-0.9,0.7-1.2,1.1c-0.3,0.4-0.7,0.8-1.1,1.2l0,0v1.1c0,0.2,0.2,0.4,0.4,0.4h21.2
			C142,101.6,141.7,101,141.6,100.5z"/>
		<path class="st5" d="M139.1,99.7c-0.3-0.5-1.4-0.4-2-0.4c-0.1,0-0.1,0-0.2,0v0.1l-6.4-4.8c-0.1-0.1-0.2-0.1-0.3,0l-4.5,2.8l-5.7-5
			c0,0-0.1-0.1-0.2-0.1s-0.1,0-0.1,0.1l-6.7,6.5c0,0.1,0,0.3,0,0.4c-0.2,0.8-0.1,1.6-0.2,2.5c0,0.1,0,0.2-0.1,0.3h26.6
			c0.3,0,0.5-0.2,0.5-0.3V100C139.5,99.9,139.3,99.9,139.1,99.7z"/>
		<g>
			<ellipse class="st6" cx="128.4" cy="92.9" rx="3.3" ry="3.3"/>
			<path class="st6" d="M128.4,96.2c-3.3,0-6,2.6-6,5.9h12C134.3,98.8,131.7,96.2,128.4,96.2z"/>
		</g>
		<rect x="141.2" y="93.8" class="st1" width="1.4" height="9"/>
		<rect x="112.1" y="94.6" class="st1" width="1.1" height="7.8"/>
	</g>
</g>
</svg>
