<?xml version="1.0" encoding="utf-8"?>
<!-- Generator: Adobe Illustrator 23.0.2, SVG Export Plug-In . SVG Version: 6.00 Build 0)  -->
<svg version="1.1" id="Layer_1" xmlns="http://www.w3.org/2000/svg" xmlns:xlink="http://www.w3.org/1999/xlink" x="0px" y="0px"
	 viewBox="0 0 217 150" style="enable-background:new 0 0 217 150;" xml:space="preserve">
<style type="text/css">
	.st0{fill:#E3E3E3;}
	.st1{fill:#333232;}
	.st2{fill:#575757;}
	.st3{fill:#989798;}
	.st4{fill:#878787;}
	.st5{fill:#676868;}
	.st6{fill:#333333;}
</style>
<g>
	<rect x="77" y="76.3" class="st0" width="62.9" height="43.5"/>
	<rect x="79.8" y="102.6" class="st1" width="31.4" height="3"/>
	<rect x="79.8" y="114.7" class="st2" width="14" height="2.1"/>
	<rect x="79.8" y="79.1" class="st3" width="57.1" height="21"/>
	<rect x="79.8" y="106.9" class="st1" width="55.6" height="1.4"/>
	<rect x="79.8" y="109.2" class="st1" width="55.6" height="1.4"/>
	<rect x="79.8" y="111.8" class="st1" width="39.3" height="1.4"/>
	<path class="st4" d="M139.3,99.4c0-0.4,0-0.8,0-1.1c0-0.1,0.1-0.3,0.1-0.4c-0.6-0.5-0.6-1.6,0.1-2.1l0.1-0.1
		c-0.6-0.4-1.7-0.4-2.4-0.4c-0.1,0-0.2,0-0.2-0.1v0.1l-8.5-8.5c-0.1-0.1-0.3-0.1-0.3,0l-5.9,5l-7.6-8.9c-0.1-0.1-0.1-0.1-0.2-0.1
		s-0.2,0.1-0.2,0.1l-9,11.5v-0.1c-0.1,0.1-0.2,0.2-0.3,0.2c-0.8,0.3-1.2,1-1.7,1.6s-1,1.2-1.6,1.7c0,0-0.1,0-0.1,0.1v1.6
		c0,0.3,0.3,0.6,0.6,0.6h37.4C139.4,99.9,139.3,99.7,139.3,99.4z"/>
	<path class="st4" d="M125.6,96.1c-0.6-0.8-2.5-0.7-3.6-0.7c-0.1,0-0.2,0-0.3-0.1v0.1l-11.2-8.5c-0.1-0.1-0.3-0.1-0.5,0l-7.8,5
		l-10-8.9c-0.1-0.1-0.2-0.1-0.3-0.1S91.7,83,91.7,83L79.9,94.5c0.1,0.2,0.1,0.4-0.1,0.7c-0.4,1.4-0.2,2.9-0.3,4.3
		c0,0.2-0.1,0.4-0.2,0.6h46.5c0.4,0,0.8-0.3,0.8-0.6v-3.3C126.3,96.4,125.8,96.3,125.6,96.1z"/>
	<g>
		<circle class="st5" cx="108.7" cy="86.2" r="5"/>
		<path class="st5" d="M108.7,91.2c-5,0-9,4-9,9h18C117.8,95.2,113.7,91.2,108.7,91.2z"/>
	</g>
	<rect x="136.9" y="93.2" class="st0" width="2.9" height="7.5"/>
	<rect x="78.3" y="92.7" class="st0" width="1.6" height="8"/>
</g>
<g>
	<g>
		<path class="st6" d="M120.1,11H96.7c-1.3,0-2.3,1-2.3,2.3s1,2.3,2.3,2.3H120c1.3,0,2.3-1,2.3-2.3C122.4,12.1,121.4,11,120.1,11z"
			/>
	</g>
</g>
<g>
	<g>
		<path class="st6" d="M136.4,11h-2.3c-1.3,0-2.3,1-2.3,2.3s1,2.3,2.3,2.3h2.3c1.3,0,2.3-1,2.3-2.3C138.8,12.1,137.7,11,136.4,11z"
			/>
	</g>
</g>
<g>
	<g>
		<path class="st6" d="M111.3,123h-5.8c-3.5,0-6.4,2.9-6.4,6.4v1.1c0,3.5,2.9,6.4,6.4,6.4h5.8c3.5,0,6.4-2.9,6.4-6.4v-1.1
			C117.8,125.9,114.9,123,111.3,123z M113.1,130.6c0,1-0.8,1.8-1.8,1.8h-5.8c-1,0-1.8-0.8-1.8-1.8v-1.1c0-1,0.8-1.8,1.8-1.8h5.8
			c1,0,1.8,0.8,1.8,1.8V130.6z"/>
	</g>
</g>
<g>
	<g>
		<path class="st6" d="M139.7,4H77.2c-4.7,0-8.4,3.8-8.4,8.4v123.2c0,4.7,3.8,8.4,8.4,8.4h62.5c4.7,0,8.4-3.8,8.4-8.4V12.4
			C148.1,7.8,144.3,4,139.7,4z M143.4,135.6c0,2.1-1.7,3.8-3.8,3.8H77.2c-2.1,0-3.8-1.7-3.8-3.8V12.4c0-2.1,1.7-3.8,3.8-3.8h62.5
			c2.1,0,3.8,1.7,3.8,3.8L143.4,135.6L143.4,135.6z"/>
	</g>
</g>
<g>
	<g>
		<path class="st6" d="M145.8,18H71.1c-1.3,0-2.3,1-2.3,2.3v98c0,1.3,1,2.3,2.3,2.3h74.7c1.3,0,2.3-1,2.3-2.3v-98
			C148.1,19.1,147,18,145.8,18z M143.4,116h-70V22.7h70V116z"/>
	</g>
</g>
<g>
	<rect x="77" y="29.6" class="st0" width="62.9" height="43.5"/>
	<rect x="79.8" y="55.9" class="st1" width="31.4" height="3"/>
	<rect x="79.8" y="68" class="st2" width="14" height="2.1"/>
	<rect x="79.8" y="32.4" class="st3" width="57.1" height="21"/>
	<rect x="79.8" y="60.2" class="st1" width="55.6" height="1.4"/>
	<rect x="79.8" y="62.5" class="st1" width="55.6" height="1.4"/>
	<rect x="79.8" y="65.1" class="st1" width="39.3" height="1.4"/>
	<path class="st4" d="M139.3,52.7c0-0.4,0-0.8,0-1.1c0-0.1,0.1-0.3,0.1-0.4c-0.6-0.5-0.6-1.6,0.1-2.1l0.1-0.1
		c-0.6-0.4-1.7-0.4-2.4-0.4c-0.1,0-0.2,0-0.2-0.1v0.1l-8.5-8.5c-0.1-0.1-0.3-0.1-0.3,0l-5.9,5l-7.6-8.9c-0.1-0.1-0.1-0.1-0.2-0.1
		s-0.2,0.1-0.2,0.1l-9,11.5v-0.1c-0.1,0.1-0.2,0.2-0.3,0.2c-0.8,0.3-1.2,1-1.7,1.6s-1,1.2-1.6,1.7c0,0-0.1,0-0.1,0.1v1.6
		c0,0.3,0.3,0.6,0.6,0.6h37.4C139.4,53.2,139.3,53,139.3,52.7z"/>
	<path class="st4" d="M125.6,49.4c-0.6-0.8-2.5-0.7-3.6-0.7c-0.1,0-0.2,0-0.3-0.1v0.1l-11.2-8.5c-0.1-0.1-0.3-0.1-0.5,0l-7.8,5
		l-9.9-8.9c-0.1-0.1-0.2-0.1-0.3-0.1s-0.2,0.1-0.3,0.1L79.9,47.8c0.1,0.2,0.1,0.4-0.1,0.7c-0.4,1.4-0.2,2.9-0.3,4.3
		c0,0.2-0.1,0.4-0.2,0.6h46.5c0.4,0,0.8-0.3,0.8-0.6v-3.3C126.3,49.7,125.8,49.6,125.6,49.4z"/>
	<g>
		<circle class="st5" cx="108.7" cy="39.5" r="5"/>
		<path class="st5" d="M108.7,44.5c-5,0-9,4-9,9h18C117.8,48.5,113.7,44.5,108.7,44.5z"/>
	</g>
	<rect x="136.9" y="46.5" class="st0" width="2.9" height="7.5"/>
	<rect x="78.3" y="46" class="st0" width="1.6" height="8"/>
</g>
</svg>
