<?xml version="1.0" encoding="utf-8"?>
<!-- Generator: Adobe Illustrator 23.0.2, SVG Export Plug-In . SVG Version: 6.00 Build 0)  -->
<svg version="1.1" id="Layer_1" xmlns="http://www.w3.org/2000/svg" xmlns:xlink="http://www.w3.org/1999/xlink" x="0px" y="0px"
	 viewBox="0 0 217 150" style="enable-background:new 0 0 217 150;" xml:space="preserve">
<style type="text/css">
	.st0{fill:#E3E3E3;}
	.st1{fill:#323232;}
	.st2{fill:#999999;}
	.st3{fill:#878787;}
	.st4{fill:#666666;}
	.st5{fill:#3E3E3E;}
</style>
<rect x="0" y="0.7" class="st0" width="217" height="150"/>
<rect x="54.9" y="13.9" class="st1" width="56" height="10.5"/>
<rect x="11.9" y="30.2" class="st1" width="100.6" height="4.6"/>
<rect x="11.9" y="38.3" class="st1" width="100.6" height="4.6"/>
<rect x="11.9" y="47.2" class="st1" width="100.6" height="4.6"/>
<rect x="11.9" y="55.4" class="st1" width="100.6" height="4.6"/>
<rect x="11.9" y="63.5" class="st1" width="100.6" height="4.6"/>
<rect x="11.9" y="72.4" class="st1" width="100.6" height="4.6"/>
<rect x="83.4" y="79.2" class="st1" width="29.3" height="4.6"/>
<rect x="117.4" y="9.7" class="st2" width="90.5" height="129.7"/>
<path class="st3" d="M215.3,132.1c-0.2-1.5,0.1-2.8,0.9-3.8c-0.5-5.4-0.9-10.8-1-16.3c0-0.8,0-1.6,0-2.4c0-0.4,0.1-0.7,0.1-1.1
	c-1.4-0.2-2.8-0.1-3.9-0.1c-0.3,0-0.5-0.1-0.7-0.3v0.6l-26.7-54c-0.3-0.6-0.8-0.6-1.1-0.1l-18.5,31.8l-23.7-56.9
	c-0.2-0.4-0.4-0.6-0.6-0.6c-0.2,0-0.5,0.2-0.6,0.6l-28,73.2c0.1,1.3,0.1,2.8-0.1,4.5c-1,9.1-0.4,18.6-0.7,27.9
	c-0.1,1.3-0.2,2.6-0.4,3.8h106C215.9,136.8,215.6,134.5,215.3,132.1z"/>
<g>
	<circle class="st4" cx="164.9" cy="83.8" r="19.5"/>
	<path class="st4" d="M164.9,103.3c-19.5,0-35.4,15.8-35.4,35.4h70.8C200.3,119.2,184.4,103.3,164.9,103.3z"/>
</g>
<rect x="207.9" y="101.3" class="st0" width="9.1" height="40.3"/>
<rect x="110.2" y="86.1" class="st0" width="7.2" height="61.7"/>
<rect x="64.3" y="91.1" class="st5" width="48.3" height="7.1"/>
</svg>
