<?xml version="1.0" encoding="utf-8"?>
<!-- Generator: Adobe Illustrator 23.0.2, SVG Export Plug-In . SVG Version: 6.00 Build 0)  -->
<svg version="1.1" id="Layer_1" xmlns="http://www.w3.org/2000/svg" xmlns:xlink="http://www.w3.org/1999/xlink" x="0px" y="0px"
	 viewBox="0 0 217 150" style="enable-background:new 0 0 217 150;" xml:space="preserve">
<style type="text/css">
	.st0{fill:#E3E3E3;}
	.st1{fill:#333232;}
	.st2{fill:#565656;}
	.st3{fill:#989898;}
	.st4{fill:#878787;}
	.st5{fill:#676767;}
	.st6{fill:#333333;}
</style>
<g>
	<g>
		<rect x="54.6" y="83.3" class="st0" width="61.6" height="52.4"/>
		<rect x="57.3" y="119.6" class="st1" width="29.9" height="2.9"/>
		<rect x="57.3" y="131.2" class="st2" width="13.4" height="2"/>
		<rect x="57.4" y="86" class="st3" width="56" height="30.3"/>
		<rect x="57.3" y="123.7" class="st1" width="53.1" height="1.3"/>
		<rect x="57.3" y="126" class="st1" width="53.1" height="1.3"/>
		<rect x="57.3" y="128.4" class="st1" width="37.5" height="1.3"/>
		<path class="st4" d="M114.1,113.1c-0.4-1.6-0.5-3.3-0.7-4.9c0,0.4,0.1,0.7,0.1,1.1c-0.2-1.7-0.1-3.2,0.7-4.7
			c0.2-0.4,0.5-0.7,0.7-1.1l-5.5-5.5c-0.1-0.1-0.3-0.1-0.5,0l-8.2,6.9L90.3,92.5c-0.1-0.1-0.2-0.1-0.3-0.1c-0.1,0-0.2,0.1-0.3,0.1
			l-12.4,15.9v-0.2c-0.1,0.1-0.2,0.3-0.4,0.3c-1,0.4-1.7,1.4-2.4,2.2c-0.7,0.9-1.4,1.7-2.3,2.3h-0.1v2.2c0,0.5,0.4,0.8,0.9,0.8h42.4
			C114.8,115.2,114.4,114.1,114.1,113.1z"/>
		<path class="st4" d="M109.2,111.5c-0.7-0.9-2.9-0.8-4.1-0.8c-0.1,0-0.2,0-0.4,0v0.1l-12.9-9.7c-0.1-0.1-0.4-0.1-0.5,0l-9,5.7
			L70.9,96.5c-0.1-0.1-0.2-0.1-0.3-0.1c-0.1,0-0.2,0-0.3,0.1l-13.5,13.1c0,0.2,0,0.5,0,0.8c-0.5,1.6-0.2,3.3-0.4,5
			c0,0.2-0.1,0.5-0.2,0.7h53.2c0.5,0,0.9-0.3,0.9-0.7v-3.7C110,111.9,109.4,111.8,109.2,111.5z"/>
		<g>
			<circle class="st5" cx="87.6" cy="97.6" r="6.6"/>
			<path class="st5" d="M87.6,104.2c-6.6,0-12,5.4-12,12h23.9C99.6,109.6,94.2,104.2,87.6,104.2z"/>
		</g>
		<rect x="113.3" y="99.4" class="st0" width="2.9" height="18.2"/>
		<rect x="55.1" y="101.1" class="st0" width="2.2" height="15.8"/>
	</g>
	<g>
		<rect x="119" y="83.3" class="st0" width="62.3" height="52.4"/>
		<rect x="121.7" y="119.6" class="st1" width="30.2" height="2.9"/>
		<rect x="121.7" y="131.1" class="st2" width="13.5" height="2"/>
		<rect x="121.8" y="85.9" class="st3" width="56.6" height="30.3"/>
		<rect x="121.7" y="123.7" class="st1" width="53.7" height="1.3"/>
		<rect x="121.7" y="125.9" class="st1" width="53.7" height="1.3"/>
		<rect x="121.7" y="128.4" class="st1" width="38" height="1.3"/>
		<path class="st4" d="M179.1,113c-0.4-1.6-0.5-3.3-0.7-4.9c0,0.4,0.1,0.7,0.1,1.1c-0.2-1.7-0.1-3.2,0.7-4.7
			c0.2-0.4,0.5-0.7,0.8-1.1l-5.6-5.5c-0.1-0.1-0.3-0.1-0.5,0l-8.3,6.9L155,92.5c-0.1-0.1-0.2-0.1-0.3-0.1s-0.2,0.1-0.3,0.1
			l-12.5,15.9v-0.2c-0.1,0.1-0.2,0.3-0.4,0.3c-1,0.4-1.8,1.4-2.4,2.2c-0.7,0.9-1.4,1.7-2.3,2.3h-0.1v2.2c0,0.5,0.4,0.8,0.9,0.8h42.8
			C179.9,115.2,179.4,114.1,179.1,113z"/>
		<path class="st4" d="M174.2,111.4c-0.7-0.9-2.9-0.8-4.1-0.8c-0.1,0-0.3,0-0.4,0v0.1l-13.1-9.7c-0.1-0.1-0.4-0.1-0.5,0l-9.1,5.7
			l-11.6-10.2c-0.1-0.1-0.2-0.1-0.3-0.1s-0.2,0-0.3,0.1l-13.7,13.1c0.1,0.2,0,0.5,0,0.8c-0.5,1.6-0.2,3.3-0.4,5
			c0,0.2-0.1,0.5-0.2,0.7h53.8c0.5,0,0.9-0.3,0.9-0.7v-3.7C175,111.8,174.4,111.8,174.2,111.4z"/>
		<g>
			<ellipse class="st5" cx="152.4" cy="97.6" rx="6.7" ry="6.6"/>
			<path class="st5" d="M152.4,104.2c-6.7,0-12.1,5.4-12.1,12h24.2C164.5,109.5,159.1,104.2,152.4,104.2z"/>
		</g>
		<rect x="178.4" y="99.4" class="st0" width="2.9" height="18.2"/>
		<rect x="119.5" y="101" class="st0" width="2.2" height="15.8"/>
	</g>
</g>
<g>
	<path class="st6" d="M20,123.1c0,0,0,16.7,16.2,16.7H182c16.2,0,16.2-16.7,16.2-16.7V26.9c0,0,0-16.7-16.2-16.7H36.1
		C20,10.2,20,26.9,20,26.9V123.1z M26.1,74.8c0-3.5,2.7-6.3,6.1-6.3s6.1,2.8,6.1,6.3s-2.7,6.3-6.1,6.3
		C28.8,81.1,26.1,78.3,26.1,74.8z M52.6,18.3h129c8.4,0,8.4,9,8.4,9v95.4c0,0,0,9-8.4,9h-129c-8.4,0-8.4-9-8.4-9V27.3
		C44.2,27.3,44.2,18.3,52.6,18.3z"/>
</g>
<g>
	<g>
		<rect x="54.5" y="29.3" class="st0" width="61.6" height="49.2"/>
		<rect x="57.2" y="63.4" class="st1" width="29.9" height="2.7"/>
		<rect x="57.2" y="74.3" class="st2" width="13.4" height="1.8"/>
		<rect x="57.3" y="31.8" class="st3" width="56" height="28.5"/>
		<rect x="57.2" y="67.3" class="st1" width="53.1" height="1.2"/>
		<rect x="57.2" y="69.4" class="st1" width="53.1" height="1.2"/>
		<rect x="57.2" y="71.7" class="st1" width="37.5" height="1.2"/>
		<path class="st4" d="M114,57.2c-0.4-1.5-0.5-3.1-0.7-4.6c0,0.3,0.1,0.7,0.1,1c-0.2-1.6-0.1-3,0.7-4.4c0.2-0.4,0.5-0.7,0.7-1
			l-5.5-5.2c-0.1-0.1-0.3-0.1-0.5,0l-8.2,6.5L90.3,37.9c-0.1-0.1-0.2-0.1-0.3-0.1c-0.1,0-0.2,0-0.3,0.1l-12.4,15v-0.2
			c-0.1,0.1-0.2,0.2-0.4,0.3c-1,0.4-1.7,1.3-2.4,2.1c-0.7,0.8-1.4,1.6-2.3,2.2h-0.1v2.1c0,0.4,0.4,0.8,0.9,0.8h42.4
			C114.8,59.3,114.3,58.2,114,57.2z"/>
		<path class="st4" d="M109.1,55.8c-0.7-0.9-2.9-0.7-4.1-0.7c-0.1,0-0.2,0-0.4,0v0.1L91.8,46c-0.1-0.1-0.4-0.1-0.5,0l-9,5.4
			l-11.4-9.6c-0.1-0.1-0.2-0.1-0.3-0.1c-0.1,0-0.2,0-0.3,0.1L56.7,54.1c0,0.2,0,0.5,0,0.8c-0.5,1.5-0.2,3.1-0.4,4.7
			c0,0.2-0.1,0.4-0.2,0.6h53.2c0.5,0,0.9-0.3,0.9-0.6V56C109.9,56.1,109.4,56.1,109.1,55.8z"/>
		<g>
			<ellipse class="st5" cx="87.6" cy="42.7" rx="6.6" ry="6.2"/>
			<path class="st5" d="M87.6,48.9c-6.6,0-12,5-12,11.3h23.9C99.5,54,94.2,48.9,87.6,48.9z"/>
		</g>
		<rect x="113.2" y="44.4" class="st0" width="2.9" height="17.2"/>
		<rect x="55.1" y="46" class="st0" width="2.2" height="14.9"/>
	</g>
	<g>
		<rect x="118.9" y="29.2" class="st0" width="62.3" height="49.2"/>
		<rect x="121.7" y="63.4" class="st1" width="30.2" height="2.7"/>
		<rect x="121.7" y="74.2" class="st2" width="13.5" height="1.8"/>
		<rect x="121.7" y="31.7" class="st3" width="56.6" height="28.5"/>
		<rect x="121.7" y="67.2" class="st1" width="53.7" height="1.2"/>
		<rect x="121.7" y="69.3" class="st1" width="53.7" height="1.2"/>
		<rect x="121.7" y="71.6" class="st1" width="38" height="1.2"/>
		<path class="st4" d="M179.1,57.2c-0.4-1.5-0.5-3.1-0.7-4.6c0,0.3,0.1,0.7,0.1,1c-0.2-1.6-0.1-3,0.7-4.4c0.2-0.4,0.5-0.7,0.8-1
			l-5.6-5.2c-0.1-0.1-0.3-0.1-0.5,0l-8.3,6.5L155,37.9c-0.1-0.1-0.2-0.1-0.3-0.1s-0.2,0-0.3,0.1L142,52.8v-0.2
			c-0.1,0.1-0.2,0.2-0.4,0.3c-1,0.4-1.8,1.3-2.4,2.1c-0.7,0.8-1.4,1.6-2.3,2.2h-0.1v2.1c0,0.4,0.4,0.8,0.9,0.8h42.8
			C179.8,59.2,179.3,58.2,179.1,57.2z"/>
		<path class="st4" d="M174.1,55.7c-0.7-0.9-2.9-0.7-4.1-0.7c-0.1,0-0.3,0-0.4,0l0,0l-13.1-9.1c-0.1-0.1-0.4-0.1-0.5,0l-9.1,5.4
			l-11.6-9.6c-0.1-0.1-0.2-0.1-0.3-0.1s-0.2,0-0.3,0.1L121.1,54c0.1,0.2,0,0.5,0,0.8c-0.5,1.5-0.2,3.1-0.4,4.7
			c0,0.2-0.1,0.4-0.2,0.6h53.8c0.5,0,0.9-0.3,0.9-0.6V56C174.9,56.1,174.4,56,174.1,55.7z"/>
		<g>
			<ellipse class="st5" cx="152.3" cy="42.7" rx="6.7" ry="6.2"/>
			<path class="st5" d="M152.3,48.9c-6.7,0-12.1,5-12.1,11.3h24.2C164.4,53.9,159,48.9,152.3,48.9z"/>
		</g>
		<rect x="178.3" y="44.4" class="st0" width="2.9" height="17.2"/>
		<rect x="119.5" y="45.9" class="st0" width="2.2" height="14.9"/>
	</g>
</g>
</svg>
