<?xml version="1.0" encoding="utf-8"?>
<!-- Generator: Adobe Illustrator 23.0.2, SVG Export Plug-In . SVG Version: 6.00 Build 0)  -->
<svg version="1.1" id="Layer_1" xmlns="http://www.w3.org/2000/svg" xmlns:xlink="http://www.w3.org/1999/xlink" x="0px" y="0px"
	 viewBox="0 0 217 150" style="enable-background:new 0 0 217 150;" xml:space="preserve">
<style type="text/css">
	.st0{fill:#333333;}
	.st1{fill:#E3E3E3;}
	.st2{fill:#333232;}
	.st3{fill:#575757;}
	.st4{fill:#989798;}
	.st5{fill:#878787;}
	.st6{fill:#676868;}
</style>
<g>
	<path class="st0" d="M19,123.1c0,0,0,16.7,16.2,16.7H181c16.2,0,16.2-16.7,16.2-16.7V26.9c0,0,0-16.7-16.2-16.7H35.1
		C19,10.2,19,26.9,19,26.9V123.1z M25.1,74.8c0-3.5,2.7-6.3,6.1-6.3s6.1,2.8,6.1,6.3s-2.7,6.3-6.1,6.3
		C27.8,81.1,25.1,78.3,25.1,74.8z M51.6,18.3h129c8.4,0,8.4,9,8.4,9v95.4c0,0,0,9-8.4,9h-129c-8.4,0-8.4-9-8.4-9V27.3
		C43.2,27.3,43.2,18.3,51.6,18.3z"/>
</g>
<g>
	<rect x="53.5" y="29.6" class="st1" width="126.9" height="87.7"/>
	<rect x="59.3" y="82.6" class="st2" width="63.3" height="6.1"/>
	<rect x="59.3" y="107" class="st3" width="28.3" height="4.2"/>
	<rect x="59.3" y="35.1" class="st4" width="115.2" height="42.4"/>
	<rect x="59.3" y="91.3" class="st2" width="112.3" height="2.7"/>
	<rect x="59.3" y="96" class="st2" width="112.3" height="2.7"/>
	<rect x="59.3" y="101.2" class="st2" width="79.4" height="2.7"/>
	<path class="st5" d="M179.4,76.1c0-0.8,0-1.5,0-2.2c0-0.2,0.1-0.5,0.1-0.8c-1.2-1.1-1.2-3.2,0.1-4.3l0.1-0.1
		c-1.2-0.9-3.4-0.8-4.8-0.8c-0.2,0-0.3,0-0.4-0.1V68l-17.2-17c-0.2-0.2-0.5-0.2-0.7,0l-12,10.1l-15.2-18c-0.1-0.1-0.2-0.2-0.4-0.2
		c-0.1,0-0.3,0.1-0.4,0.2l-18.1,23.1V66c-0.1,0.2-0.3,0.3-0.5,0.4c-1.5,0.5-2.5,2.1-3.5,3.3s-2,2.4-3.3,3.4c0,0-0.1,0-0.1,0.1v3.2
		c0,0.7,0.5,1.2,1.2,1.2h75.6C179.5,77.2,179.4,76.7,179.4,76.1z"/>
	<path class="st5" d="M151.7,69.4c-1.2-1.6-5-1.4-7.2-1.4c-0.2,0-0.4,0-0.7-0.1v0.2L121.1,51c-0.2-0.2-0.7-0.2-1,0l-15.8,10.1
		l-20-18c-0.1-0.1-0.3-0.2-0.5-0.2s-0.4,0.1-0.5,0.2L59.4,66.3c0.1,0.4,0.1,0.9-0.1,1.4c-0.9,2.9-0.3,5.9-0.7,8.8
		c0,0.4-0.1,0.9-0.3,1.2h93.8c0.9,0,1.6-0.5,1.6-1.2v-6.6C153.1,70.1,152.1,70,151.7,69.4z"/>
	<g>
		<circle class="st6" cx="117.7" cy="49.5" r="10.1"/>
		<path class="st6" d="M117.7,59.6c-10.1,0-18.2,8.1-18.2,18.2h36.4C135.9,67.7,127.8,59.6,117.7,59.6z"/>
	</g>
	<rect x="174.6" y="63.6" class="st1" width="5.8" height="15.1"/>
	<rect x="56.1" y="62.6" class="st1" width="3.3" height="16.2"/>
</g>
</svg>
