<?xml version="1.0" encoding="utf-8"?>
<!-- Generator: Adobe Illustrator 23.0.2, SVG Export Plug-In . SVG Version: 6.00 Build 0)  -->
<svg version="1.1" id="Layer_1" xmlns="http://www.w3.org/2000/svg" xmlns:xlink="http://www.w3.org/1999/xlink" x="0px" y="0px"
	 viewBox="0 0 217 150" style="enable-background:new 0 0 217 150;" xml:space="preserve">
<style type="text/css">
	.st0{fill:#E3E3E3;}
	.st1{fill:#333232;}
	.st2{fill:#565656;}
	.st3{fill:#989898;}
	.st4{fill:#878787;}
	.st5{fill:#676767;}
	.st6{fill:#333333;}
	.st7{fill:#FFFFFF;}
</style>
<g>
	<g>
		<rect x="57.6" y="109.4" class="st0" width="40" height="34"/>
		<rect x="59.3" y="133" class="st1" width="19.4" height="1.9"/>
		<rect x="59.3" y="140.5" class="st2" width="8.7" height="1.3"/>
		<rect x="59.4" y="111.1" class="st3" width="36.3" height="19.6"/>
		<rect x="59.3" y="135.6" class="st1" width="34.4" height="0.8"/>
		<rect x="59.3" y="137.1" class="st1" width="34.4" height="0.8"/>
		<rect x="59.3" y="138.7" class="st1" width="24.4" height="0.8"/>
		<path class="st4" d="M96.2,128.7c-0.3-1-0.3-2.1-0.4-3.2c0,0.2,0.1,0.5,0.1,0.7c-0.2-1.1-0.1-2.1,0.4-3.1c0.1-0.3,0.3-0.5,0.5-0.7
			l-3.6-3.6c-0.1-0.1-0.2-0.1-0.3,0l-5.3,4.5l-6.8-8c0-0.1-0.1-0.1-0.2-0.1s-0.1,0-0.2,0.1l-8,10.3v-0.1c-0.1,0.1-0.1,0.2-0.3,0.2
			c-0.7,0.3-1.1,0.9-1.5,1.4c-0.4,0.6-0.9,1.1-1.5,1.5c0,0,0,0-0.1,0v1.4c0,0.3,0.2,0.5,0.6,0.5h27.5
			C96.7,130.1,96.4,129.4,96.2,128.7z"/>
		<path class="st4" d="M93,127.7c-0.4-0.6-1.9-0.5-2.7-0.5c-0.1,0-0.2,0-0.2,0v0.1l-8.4-6.3c-0.1-0.1-0.2-0.1-0.3,0l-5.8,3.7
			l-7.4-6.6c0,0-0.1-0.1-0.2-0.1s-0.1,0-0.2,0.1l-8.8,8.5c0,0.2,0,0.3,0,0.5c-0.3,1.1-0.1,2.2-0.2,3.2c0,0.2-0.1,0.3-0.1,0.4h34.5
			c0.3,0,0.6-0.2,0.6-0.4v-2.4C93.5,127.9,93.2,127.9,93,127.7z"/>
		<g>
			<circle class="st5" cx="79" cy="118.7" r="4.3"/>
			<path class="st5" d="M79,123c-4.3,0-7.8,3.5-7.8,7.8h15.5C86.8,126.5,83.3,123,79,123z"/>
		</g>
		<rect x="95.7" y="119.9" class="st0" width="1.9" height="11.8"/>
		<rect x="57.9" y="120.9" class="st0" width="1.4" height="10.3"/>
	</g>
	<g>
		<rect x="100.6" y="109.4" class="st0" width="40.5" height="34"/>
		<rect x="102.4" y="132.9" class="st1" width="19.6" height="1.9"/>
		<rect x="102.4" y="140.4" class="st2" width="8.8" height="1.3"/>
		<rect x="102.5" y="111.1" class="st3" width="36.7" height="19.6"/>
		<rect x="102.4" y="135.6" class="st1" width="34.8" height="0.8"/>
		<rect x="102.4" y="137" class="st1" width="34.8" height="0.8"/>
		<rect x="102.4" y="138.6" class="st1" width="24.6" height="0.8"/>
		<path class="st4" d="M139.7,128.7c-0.3-1-0.3-2.1-0.4-3.2c0,0.2,0.1,0.5,0.1,0.7c-0.2-1.1-0.1-2.1,0.5-3.1
			c0.1-0.3,0.3-0.5,0.5-0.7l-3.6-3.6c-0.1-0.1-0.2-0.1-0.3,0l-5.4,4.5l-6.9-8c0-0.1-0.1-0.1-0.2-0.1s-0.1,0-0.2,0.1l-8.1,10.3v-0.1
			c-0.1,0.1-0.1,0.2-0.3,0.2c-0.7,0.3-1.1,0.9-1.6,1.4c-0.5,0.6-0.9,1.1-1.5,1.5c0,0,0,0-0.1,0v1.4c0,0.3,0.3,0.5,0.6,0.5h27.8
			C140.2,130.1,139.9,129.4,139.7,128.7z"/>
		<path class="st4" d="M136.5,127.6c-0.5-0.6-1.9-0.5-2.7-0.5c-0.1,0-0.2,0-0.2,0v0.1l-8.5-6.3c-0.1-0.1-0.2-0.1-0.3,0l-5.9,3.7
			l-7.5-6.6c0,0-0.1-0.1-0.2-0.1s-0.2,0-0.2,0.1l-8.9,8.5c0,0.2,0,0.3,0,0.5c-0.3,1.1-0.1,2.2-0.2,3.2c0,0.2-0.1,0.3-0.1,0.4h34.9
			c0.3,0,0.6-0.2,0.6-0.4v-2.4C137,127.9,136.7,127.9,136.5,127.6z"/>
		<g>
			<ellipse class="st5" cx="122.3" cy="118.7" rx="4.3" ry="4.3"/>
			<path class="st5" d="M122.3,122.9c-4.3,0-7.9,3.5-7.9,7.8h15.7C130.2,126.4,126.7,122.9,122.3,122.9z"/>
		</g>
		<rect x="139.2" y="119.8" class="st0" width="1.9" height="11.8"/>
		<rect x="101" y="120.9" class="st0" width="1.4" height="10.3"/>
	</g>
	<g>
		<rect x="144" y="109.3" class="st0" width="40.5" height="34"/>
		<rect x="145.8" y="132.9" class="st1" width="19.6" height="1.9"/>
		<rect x="145.8" y="140.4" class="st2" width="8.8" height="1.3"/>
		<rect x="145.8" y="111" class="st3" width="36.7" height="19.6"/>
		<rect x="145.8" y="135.6" class="st1" width="34.8" height="0.8"/>
		<rect x="145.8" y="137" class="st1" width="34.8" height="0.8"/>
		<rect x="145.8" y="138.6" class="st1" width="24.6" height="0.8"/>
		<path class="st4" d="M183.1,128.6c-0.3-1-0.3-2.1-0.4-3.2c0,0.2,0.1,0.5,0.1,0.7c-0.2-1.1-0.1-2.1,0.5-3.1
			c0.1-0.3,0.3-0.5,0.5-0.7l-3.6-3.6c-0.1-0.1-0.2-0.1-0.3,0l-5.4,4.5l-6.9-8c0-0.1-0.1-0.1-0.2-0.1c-0.1,0-0.1,0-0.2,0.1l-8.1,10.3
			v-0.1c-0.1,0.1-0.1,0.2-0.3,0.2c-0.7,0.3-1.1,0.9-1.6,1.4c-0.5,0.6-0.9,1.1-1.5,1.5c0,0,0,0-0.1,0v1.4c0,0.3,0.3,0.5,0.6,0.5H184
			C183.6,130,183.3,129.3,183.1,128.6z"/>
		<path class="st4" d="M179.9,127.6c-0.5-0.6-1.9-0.5-2.7-0.5c-0.1,0-0.2,0-0.2,0v0.1l-8.5-6.3c-0.1-0.1-0.2-0.1-0.3,0l-5.9,3.7
			l-7.5-6.6c0,0-0.1-0.1-0.2-0.1c-0.1,0-0.2,0-0.2,0.1l-8.9,8.5c0,0.2,0,0.3,0,0.5c-0.3,1.1-0.1,2.2-0.2,3.2c0,0.2-0.1,0.3-0.1,0.4
			H180c0.3,0,0.6-0.2,0.6-0.4v-2.4C180.4,127.9,180,127.8,179.9,127.6z"/>
		<g>
			<ellipse class="st5" cx="165.7" cy="118.6" rx="4.3" ry="4.3"/>
			<path class="st5" d="M165.7,122.9c-4.3,0-7.9,3.5-7.9,7.8h15.7C173.6,126.4,170,122.9,165.7,122.9z"/>
		</g>
		<rect x="182.6" y="119.8" class="st0" width="1.5" height="11.8"/>
		<rect x="144.4" y="120.9" class="st0" width="1.4" height="10.3"/>
	</g>
</g>
<g>
	<path class="st6" d="M19.4,124.7c0,0,0,16.7,16.2,16.7h145.8c16.2,0,16.2-16.7,16.2-16.7V28.5c0,0,0-16.7-16.2-16.7H35.6
		c-16.2,0-16.2,16.7-16.2,16.7S19.4,124.7,19.4,124.7z M25.5,76.4c0-3.5,2.7-6.3,6.1-6.3s6.1,2.8,6.1,6.3s-2.7,6.3-6.1,6.3
		C28.2,82.6,25.5,79.8,25.5,76.4z M52.1,19.9h129c8.4,0,8.4,9,8.4,9v95.4c0,0,0,9-8.4,9h-129c-8.4,0-8.4-9-8.4-9V28.9
		C43.7,28.9,43.7,19.9,52.1,19.9z"/>
</g>
<g>
	<g>
		<rect x="56.5" y="31.9" class="st0" width="40" height="34"/>
		<rect x="58.3" y="55.4" class="st1" width="19.4" height="1.9"/>
		<rect x="58.3" y="62.9" class="st2" width="8.7" height="1.3"/>
		<rect x="58.3" y="33.6" class="st3" width="36.3" height="19.6"/>
		<rect x="58.3" y="58.1" class="st1" width="34.4" height="0.8"/>
		<rect x="58.3" y="59.5" class="st1" width="34.4" height="0.8"/>
		<rect x="58.3" y="61.1" class="st1" width="24.4" height="0.8"/>
		<path class="st4" d="M95.1,51.2c-0.3-1-0.3-2.1-0.4-3.2c0,0.2,0.1,0.5,0.1,0.7c-0.2-1.1-0.1-2.1,0.4-3.1c0.1-0.3,0.3-0.5,0.5-0.7
			l-3.6-3.6c-0.1-0.1-0.2-0.1-0.3,0l-5.3,4.5l-6.8-8c0-0.1-0.1-0.1-0.2-0.1s-0.1,0-0.2,0.1l-8,10.3V48c-0.1,0.1-0.1,0.2-0.3,0.2
			c-0.7,0.3-1.1,0.9-1.5,1.4c-0.4,0.6-0.9,1.1-1.5,1.5c0,0,0,0-0.1,0v1.4c0,0.3,0.2,0.5,0.6,0.5H96C95.6,52.6,95.3,51.8,95.1,51.2z"
			/>
		<path class="st4" d="M91.9,50.1c-0.4-0.6-1.9-0.5-2.7-0.5c-0.1,0-0.2,0-0.2,0v0.1l-8.4-6.3c-0.1-0.1-0.2-0.1-0.3,0l-5.8,3.7
			l-7.4-6.6c0,0-0.1-0.1-0.2-0.1s-0.1,0-0.2,0.1L57.9,49c0,0.2,0,0.3,0,0.5c-0.3,1.1-0.1,2.2-0.2,3.2c0,0.2-0.1,0.3-0.1,0.4h34.5
			c0.3,0,0.6-0.2,0.6-0.4v-2.4C92.4,50.4,92.1,50.3,91.9,50.1z"/>
		<g>
			<circle class="st5" cx="77.9" cy="41.1" r="4.3"/>
			<path class="st5" d="M77.9,45.4c-4.3,0-7.8,3.5-7.8,7.8h15.5C85.7,48.9,82.2,45.4,77.9,45.4z"/>
		</g>
		<rect x="94.6" y="42.3" class="st0" width="1.9" height="11.8"/>
		<rect x="56.9" y="43.4" class="st0" width="1.4" height="10.3"/>
	</g>
	<g>
		<rect x="99.6" y="31.8" class="st0" width="40.4" height="34"/>
		<rect x="101.3" y="55.4" class="st1" width="19.6" height="1.9"/>
		<rect x="101.3" y="62.9" class="st2" width="8.8" height="1.3"/>
		<rect x="101.4" y="33.5" class="st3" width="36.7" height="19.6"/>
		<rect x="101.3" y="58" class="st1" width="34.8" height="0.8"/>
		<rect x="101.3" y="59.5" class="st1" width="34.8" height="0.8"/>
		<rect x="101.3" y="61.1" class="st1" width="24.6" height="0.8"/>
		<path class="st4" d="M138.6,51.1c-0.3-1-0.3-2.1-0.4-3.2c0,0.2,0.1,0.5,0.1,0.7c-0.2-1.1-0.1-2.1,0.5-3.1c0.1-0.3,0.3-0.5,0.5-0.7
			l-3.6-3.6c-0.1-0.1-0.2-0.1-0.3,0l-5.4,4.5l-6.9-8c0-0.1-0.1-0.1-0.2-0.1s-0.1,0-0.2,0.1L114.6,48l0,0c-0.1,0.1-0.1,0.2-0.3,0.2
			c-0.7,0.3-1.1,0.9-1.6,1.4c-0.5,0.6-0.9,1.1-1.5,1.5c0,0,0,0-0.1,0v1.4c0,0.3,0.3,0.5,0.6,0.5h27.8
			C139.1,52.5,138.8,51.8,138.6,51.1z"/>
		<path class="st4" d="M135.4,50.1c-0.5-0.6-1.9-0.5-2.7-0.5c-0.1,0-0.2,0-0.2,0v0.1l-8.5-6.3c-0.1-0.1-0.2-0.1-0.3,0l-5.9,3.7
			l-7.5-6.6c0,0-0.1-0.1-0.2-0.1s-0.2,0-0.2,0.1L101,49c0,0.2,0,0.3,0,0.5c-0.3,1.1-0.1,2.2-0.2,3.2c0,0.2-0.1,0.3-0.1,0.4h34.9
			c0.3,0,0.6-0.2,0.6-0.4v-2.4C135.9,50.3,135.6,50.3,135.4,50.1z"/>
		<g>
			<ellipse class="st5" cx="121.2" cy="41.1" rx="4.3" ry="4.3"/>
			<path class="st5" d="M121.2,45.4c-4.3,0-7.9,3.5-7.9,7.8H129C129.1,48.9,125.6,45.4,121.2,45.4z"/>
		</g>
		<rect x="138.1" y="42.3" class="st0" width="1.9" height="11.8"/>
		<rect x="99.9" y="43.3" class="st0" width="1.4" height="10.3"/>
	</g>
	<g>
		<rect x="142.9" y="31.8" class="st0" width="40.4" height="34"/>
		<rect x="144.7" y="55.3" class="st1" width="19.6" height="1.9"/>
		<rect x="144.7" y="62.8" class="st2" width="8.8" height="1.3"/>
		<rect x="144.7" y="33.5" class="st3" width="36.7" height="19.6"/>
		<rect x="144.7" y="58" class="st1" width="34.8" height="0.8"/>
		<rect x="144.7" y="59.5" class="st1" width="34.8" height="0.8"/>
		<rect x="144.7" y="61" class="st1" width="24.6" height="0.8"/>
		<path class="st4" d="M182,51.1c-0.3-1-0.3-2.1-0.4-3.2c0,0.2,0.1,0.5,0.1,0.7c-0.2-1.1-0.1-2.1,0.5-3.1c0.1-0.3,0.3-0.5,0.5-0.7
			l-3.6-3.6c-0.1-0.1-0.2-0.1-0.3,0l-5.4,4.5l-6.9-8c0-0.1-0.1-0.1-0.2-0.1c-0.1,0-0.1,0-0.2,0.1L158,48v-0.1
			c-0.1,0.1-0.1,0.2-0.3,0.2c-0.7,0.3-1.1,0.9-1.6,1.4c-0.5,0.6-0.9,1.1-1.5,1.5c0,0,0,0-0.1,0v1.4c0,0.3,0.3,0.5,0.6,0.5h27.8
			C182.4,52.5,182.1,51.8,182,51.1z"/>
		<path class="st4" d="M178.7,50c-0.5-0.6-1.9-0.5-2.7-0.5c-0.1,0-0.2,0-0.2,0v0.1l-8.5-6.3c-0.1-0.1-0.2-0.1-0.3,0l-5.9,3.7
			l-7.5-6.6c0,0-0.1-0.1-0.2-0.1c-0.1,0-0.2,0-0.2,0.1l-8.9,8.5c0,0.2,0,0.3,0,0.5c-0.3,1.1-0.1,2.2-0.2,3.2c0,0.2-0.1,0.3-0.1,0.4
			h34.9c0.3,0,0.6-0.2,0.6-0.4v-2.4C179.2,50.3,178.9,50.3,178.7,50z"/>
		<g>
			<ellipse class="st5" cx="164.6" cy="41.1" rx="4.3" ry="4.3"/>
			<path class="st5" d="M164.6,45.4c-4.3,0-7.9,3.5-7.9,7.8h15.7C172.4,48.8,168.9,45.4,164.6,45.4z"/>
		</g>
		<rect x="181.4" y="42.2" class="st0" width="1.5" height="11.8"/>
		<rect x="143.3" y="43.3" class="st0" width="1.4" height="10.3"/>
	</g>
</g>
<g>
	<g>
		<rect x="56.5" y="70.8" class="st0" width="40" height="34"/>
		<rect x="58.3" y="94.4" class="st1" width="19.4" height="1.9"/>
		<rect x="58.3" y="101.8" class="st2" width="8.7" height="1.3"/>
		<rect x="58.3" y="72.5" class="st3" width="36.3" height="19.6"/>
		<rect x="58.3" y="97" class="st1" width="34.4" height="0.8"/>
		<rect x="58.3" y="98.5" class="st1" width="34.4" height="0.8"/>
		<rect x="58.3" y="100.1" class="st1" width="24.4" height="0.8"/>
		<path class="st4" d="M95.1,90.1c-0.3-1-0.3-2.1-0.4-3.2c0,0.2,0.1,0.5,0.1,0.7c-0.2-1.1-0.1-2.1,0.4-3.1c0.1-0.3,0.3-0.5,0.5-0.7
			l-3.6-3.6c-0.1-0.1-0.2-0.1-0.3,0l-5.3,4.5l-6.8-8c0-0.1-0.1-0.1-0.2-0.1s-0.1,0-0.2,0.1l-8,10.3v0c-0.1,0.1-0.1,0.2-0.3,0.2
			c-0.7,0.3-1.1,0.9-1.5,1.4c-0.4,0.6-0.9,1.1-1.5,1.5c0,0,0,0-0.1,0v1.4c0,0.3,0.2,0.5,0.6,0.5H96C95.6,91.5,95.3,90.8,95.1,90.1z"
			/>
		<path class="st4" d="M92,89.1c-0.4-0.6-1.9-0.5-2.7-0.5c-0.1,0-0.2,0-0.2,0v0.1l-8.4-6.3c-0.1-0.1-0.2-0.1-0.3,0L74.5,86l-7.4-6.6
			c0,0-0.1-0.1-0.2-0.1s-0.1,0-0.2,0.1L58,87.9c0,0.2,0,0.3,0,0.5c-0.3,1.1-0.1,2.2-0.2,3.2c0,0.2-0.1,0.3-0.1,0.4h34.5
			c0.3,0,0.6-0.2,0.6-0.4v-2.4C92.5,89.3,92.1,89.3,92,89.1z"/>
		<g>
			<circle class="st5" cx="78" cy="80.1" r="4.3"/>
			<path class="st5" d="M78,84.4c-4.3,0-7.8,3.5-7.8,7.8h15.5C85.7,87.8,82.3,84.4,78,84.4z"/>
		</g>
		<rect x="94.6" y="81.2" class="st0" width="1.9" height="11.8"/>
		<rect x="56.9" y="82.3" class="st0" width="1.4" height="10.3"/>
	</g>
	<g>
		<rect x="99.6" y="70.8" class="st0" width="40.5" height="34"/>
		<rect x="101.4" y="94.3" class="st1" width="19.6" height="1.9"/>
		<rect x="101.4" y="101.8" class="st2" width="8.8" height="1.3"/>
		<rect x="101.4" y="72.5" class="st3" width="36.7" height="19.6"/>
		<rect x="101.4" y="97" class="st1" width="34.8" height="0.8"/>
		<rect x="101.4" y="98.4" class="st1" width="34.8" height="0.8"/>
		<rect x="101.4" y="100" class="st1" width="24.6" height="0.8"/>
		<path class="st4" d="M138.7,90.1c-0.3-1-0.3-2.1-0.4-3.2c0,0.2,0.1,0.5,0.1,0.7c-0.2-1.1-0.1-2.1,0.5-3.1c0.1-0.3,0.3-0.5,0.5-0.7
			l-3.6-3.6c-0.1-0.1-0.2-0.1-0.3,0l-5.4,4.5l-6.9-8c0-0.1-0.1-0.1-0.2-0.1s-0.1,0-0.2,0.1L114.6,87v-0.1c-0.1,0.1-0.1,0.2-0.3,0.2
			c-0.7,0.3-1.1,0.9-1.6,1.4c-0.5,0.6-0.9,1.1-1.5,1.5c0,0,0,0-0.1,0v1.4c0,0.3,0.3,0.5,0.6,0.5h27.8
			C139.1,91.5,138.8,90.7,138.7,90.1z"/>
		<path class="st4" d="M135.4,89c-0.5-0.6-1.9-0.5-2.7-0.5c-0.1,0-0.2,0-0.2,0v0.1l-8.5-6.3c-0.1-0.1-0.2-0.1-0.3,0l-5.9,3.7
			l-7.5-6.6c0,0-0.1-0.1-0.2-0.1s-0.2,0-0.2,0.1l-8.9,8.5c0,0.2,0,0.3,0,0.5c-0.3,1.1-0.1,2.2-0.2,3.2c0,0.2-0.1,0.3-0.1,0.4h34.9
			c0.3,0,0.6-0.2,0.6-0.4v-2.4C135.9,89.3,135.6,89.2,135.4,89z"/>
		<g>
			<ellipse class="st5" cx="121.3" cy="80" rx="4.3" ry="4.3"/>
			<path class="st5" d="M121.3,84.3c-4.3,0-7.9,3.5-7.9,7.8h15.7C129.1,87.8,125.6,84.3,121.3,84.3z"/>
		</g>
		<rect x="138.1" y="81.2" class="st0" width="1.9" height="11.8"/>
		<rect x="100" y="82.3" class="st0" width="1.4" height="10.3"/>
	</g>
	<g>
		<rect x="142.9" y="70.7" class="st0" width="40.5" height="34"/>
		<rect x="144.7" y="94.3" class="st1" width="19.6" height="1.9"/>
		<rect x="144.7" y="101.8" class="st2" width="8.8" height="1.3"/>
		<rect x="144.8" y="72.4" class="st3" width="36.7" height="19.6"/>
		<rect x="144.7" y="96.9" class="st1" width="34.8" height="0.8"/>
		<rect x="144.7" y="98.4" class="st1" width="34.8" height="0.8"/>
		<rect x="144.7" y="100" class="st1" width="24.6" height="0.8"/>
		<path class="st4" d="M182,90c-0.3-1-0.3-2.1-0.4-3.2c0,0.2,0.1,0.5,0.1,0.7c-0.2-1.1-0.1-2.1,0.5-3.1c0.1-0.3,0.3-0.5,0.5-0.7
			l-3.6-3.6c-0.1-0.1-0.2-0.1-0.3,0l-5.4,4.5l-6.9-8c0-0.1-0.1-0.1-0.2-0.1c-0.1,0-0.1,0-0.2,0.1L157.9,87v-0.1
			c-0.1,0.1-0.1,0.2-0.3,0.2c-0.7,0.3-1.1,0.9-1.6,1.4c-0.5,0.6-0.9,1.1-1.5,1.5c0,0,0,0-0.1,0v1.4c0,0.3,0.3,0.5,0.6,0.5h27.8
			C182.5,91.4,182.2,90.7,182,90z"/>
		<path class="st4" d="M178.8,89c-0.5-0.6-1.9-0.5-2.7-0.5c-0.1,0-0.2,0-0.2,0v0.1l-8.5-6.3c-0.1-0.1-0.2-0.1-0.3,0l-5.9,3.7
			l-7.5-6.6c0,0-0.1-0.1-0.2-0.1c-0.1,0-0.2,0-0.2,0.1l-8.9,8.5c0,0.2,0,0.3,0,0.5c-0.3,1.1-0.1,2.2-0.2,3.2c0,0.2-0.1,0.3-0.1,0.4
			H179c0.3,0,0.6-0.2,0.6-0.4v-2.4C179.3,89.2,179,89.2,178.8,89z"/>
		<g>
			<ellipse class="st5" cx="164.6" cy="80" rx="4.3" ry="4.3"/>
			<path class="st5" d="M164.6,84.3c-4.3,0-7.9,3.5-7.9,7.8h15.7C172.5,87.8,169,84.3,164.6,84.3z"/>
		</g>
		<rect x="181.5" y="81.2" class="st0" width="1.5" height="11.8"/>
		<rect x="143.3" y="82.2" class="st0" width="1.4" height="10.3"/>
	</g>
</g>
<rect x="54.2" y="141.4" class="st7" width="130.3" height="8.6"/>
</svg>
