<?xml version="1.0" encoding="utf-8"?>
<!-- Generator: Adobe Illustrator 23.0.2, SVG Export Plug-In . SVG Version: 6.00 Build 0)  -->
<svg version="1.1" id="Layer_1" xmlns="http://www.w3.org/2000/svg" xmlns:xlink="http://www.w3.org/1999/xlink" x="0px" y="0px"
	 viewBox="0 0 217 150" style="enable-background:new 0 0 217 150;" xml:space="preserve">
<style type="text/css">
	.st0{fill:#E3E3E3;}
	.st1{fill:#323232;}
	.st2{fill:#555555;}
	.st3{fill:#999999;}
	.st4{fill:#878787;}
	.st5{fill:#666666;}
</style>
<rect class="st0" width="217" height="150"/>
<rect x="9.9" y="90.6" class="st1" width="108.2" height="10.5"/>
<rect x="9.9" y="132.3" class="st2" width="48.3" height="7.1"/>
<rect x="10" y="9.5" class="st3" width="197" height="72.6"/>
<rect x="9.9" y="105.4" class="st1" width="191.9" height="4.6"/>
<rect x="9.9" y="113.5" class="st1" width="191.9" height="4.6"/>
<rect x="9.9" y="122.4" class="st1" width="135.8" height="4.6"/>
<path class="st4" d="M215.2,79.6c0-1.3,0-2.5,0.1-3.8c0-0.4,0.1-0.9,0.2-1.3c-2.1-2-2-5.5,0.2-7.4c0.1-0.1,0.1-0.2,0.2-0.2
	c-2.1-1.5-5.9-1.2-8.2-1.2c-0.3,0-0.6-0.1-0.8-0.1v0.3l-29.4-29.2c-0.3-0.3-0.9-0.3-1.2,0l-20.4,17.2L129.8,23
	c-0.2-0.2-0.4-0.3-0.7-0.3c-0.3,0-0.5,0.1-0.7,0.3L97.5,62.7v-0.5c-0.2,0.3-0.6,0.6-1,0.8c-2.5,1-4.3,3.5-6,5.6
	c-1.7,2.1-3.4,4.2-5.7,5.8c-0.1,0-0.1,0.1-0.2,0.1v5.5c0,1.1,1,2,2.1,2h129.3C215.5,81.4,215.2,80.5,215.2,79.6z"/>
<path class="st4" d="M167.9,68c-2.1-2.8-8.6-2.4-12.3-2.4c-0.4,0-0.7-0.1-1.1-0.1v0.3l-38.9-29.2c-0.4-0.3-1.1-0.3-1.6,0l-27,17.2
	L52.6,23c-0.2-0.2-0.6-0.3-0.9-0.3c-0.4,0-0.7,0.1-0.9,0.3L10.1,62.6c0.2,0.7,0.1,1.5-0.1,2.4c-1.4,4.9-0.6,10-1.1,15.1
	c-0.1,0.7-0.3,1.4-0.6,2h160.3c1.6,0,2.8-0.9,2.8-2V68.8C170.2,69.2,168.6,69,167.9,68z"/>
<g>
	<circle class="st5" cx="109.8" cy="34" r="17.2"/>
	<path class="st5" d="M109.8,51.2c-17.2,0-31.1,13.9-31.1,31.1h62.3C140.9,65.1,127,51.2,109.8,51.2z"/>
</g>
<rect x="207" y="58.2" class="st0" width="10" height="25.8"/>
<rect x="4.5" y="56.5" class="st0" width="5.5" height="27.8"/>
</svg>
